<svg width="36" height="36" viewBox="0 0 36 36" fill="none" xmlns="http://www.w3.org/2000/svg">
<mask id="mask0_453_4645" style="mask-type:alpha" maskUnits="userSpaceOnUse" x="0" y="0" width="36" height="36">
<rect width="36" height="36" fill="#D9D9D9"/>
</mask>
<g mask="url(#mask0_453_4645)">
<path d="M25.5 33V28.5H21V25.5H25.5V21H28.5V25.5H33V28.5H28.5V33H25.5ZM7.5 30C6.675 30 5.96875 29.7063 5.38125 29.1188C4.79375 28.5312 4.5 27.825 4.5 27V9C4.5 8.175 4.79375 7.46875 5.38125 6.88125C5.96875 6.29375 6.675 6 7.5 6H9V3H12V6H21V3H24V6H25.5C26.325 6 27.0312 6.29375 27.6188 6.88125C28.2063 7.46875 28.5 8.175 28.5 9V18.15C28 18.075 27.5 18.0375 27 18.0375C26.5 18.0375 26 18.075 25.5 18.15V15H7.5V27H18C18 27.5 18.0375 28 18.1125 28.5C18.1875 29 18.325 29.5 18.525 30H7.5ZM7.5 12H25.5V9H7.5V12Z" fill="white"/>
</g>
</svg>
