<svg width="24" height="24" viewBox="0 0 24 24" fill="none" xmlns="http://www.w3.org/2000/svg">
    <path
        d="M14.1731 3.67236C15.9333 1.91756 18.907 1.9224 21.0266 2.95361L17.2249 6.74072L19.5022 9.01025L23.303 5.22119C24.3276 7.34275 24.3313 10.2909 22.5735 12.0464C20.9451 13.6697 18.3747 13.8842 16.3518 13.1245L7.91431 21.5854C7.80879 21.6912 7.66529 21.7505 7.51587 21.7505C7.36645 21.7505 7.22296 21.6912 7.11743 21.5854L4.66724 19.1421C4.56142 19.0366 4.5022 18.8931 4.5022 18.7437C4.50227 18.5942 4.56139 18.4507 4.66724 18.3452L13.1165 9.96338C12.3107 7.9201 12.5175 5.32236 14.1731 3.67236ZM20.8391 18.0278C20.9391 18.1231 20.9961 18.255 20.9983 18.3931C21.0004 18.5313 20.9469 18.6648 20.8499 18.7632L18.0374 21.5981C17.9399 21.6962 17.8064 21.7504 17.6682 21.7485C17.53 21.7466 17.3986 21.6881 17.304 21.5874L13.7629 17.8413L17.1301 14.4663L20.8391 18.0278ZM9.64868 2.25049C10.8951 2.2505 11.8426 2.81573 12.2073 3.15088C12.2952 3.23182 12.376 3.31149 12.4504 3.38916C12.6939 3.63822 12.9057 3.91737 13.0793 4.21924L12.5168 5.10986C12.3507 5.03282 12.178 4.97003 12.0012 4.92236C11.9501 4.91018 11.8171 4.88037 11.6545 4.85693C11.4749 4.82755 11.2924 4.81793 11.1106 4.82861C10.5895 4.87172 10.0251 5.03403 9.75122 5.25049C9.28903 5.62549 8.88778 6.21283 9.09497 6.93799C9.18873 7.26611 9.47 7.77138 10.5481 8.92822C10.7475 8.732 11.067 8.73337 11.2649 8.93115L11.6516 9.29834L8.57446 12.353L8.22583 11.9849C8.02907 11.7865 8.02604 11.4671 8.21899 11.2651C7.68915 10.7742 6.31882 9.45489 6.1604 9.35693C5.85689 9.1694 5.63946 9.13366 5.57935 9.12744C5.42455 9.11212 5.26862 9.1449 5.13306 9.22119C5.13186 9.2347 5.13584 9.2481 5.14478 9.2583L5.21704 9.32764L5.22876 9.33838C5.39048 9.5001 5.57837 9.70971 5.57837 9.93799C5.57815 10.1656 5.39089 10.3862 5.22974 10.5474L3.49243 12.2817C3.36956 12.4045 3.17014 12.4043 3.04712 12.2817L0.0939941 9.33838C-0.030224 9.2141 -0.030224 9.01247 0.0939941 8.88818L1.82837 7.15967C1.98816 6.99841 2.20585 6.90819 2.43286 6.90967C2.61436 6.90986 2.79173 6.96727 2.93872 7.07373C2.93545 7.05833 2.93481 7.0418 2.93481 7.02686C2.91653 6.76904 2.89009 6.37885 3.14087 6.02588C3.43888 5.623 3.76593 5.24244 4.11938 4.88721L4.12329 4.8833C4.64981 4.36293 5.79533 3.38252 7.55005 2.66357C8.21576 2.38985 8.92889 2.2497 9.64868 2.25049Z" />
</svg>