<svg width="36" height="36" viewBox="0 0 36 36" fill="none" xmlns="http://www.w3.org/2000/svg">
<mask id="mask0_453_4995" style="mask-type:alpha" maskUnits="userSpaceOnUse" x="0" y="0" width="36" height="36">
<rect width="36" height="36" fill="#D9D9D9"/>
</mask>
<g mask="url(#mask0_453_4995)">
<path d="M18 30C16.8 29.05 15.5 28.3125 14.1 27.7875C12.7 27.2625 11.25 27 9.75 27C8.7 27 7.66875 27.1375 6.65625 27.4125C5.64375 27.6875 4.675 28.075 3.75 28.575C3.225 28.85 2.71875 28.8375 2.23125 28.5375C1.74375 28.2375 1.5 27.8 1.5 27.225V9.15C1.5 8.875 1.56875 8.6125 1.70625 8.3625C1.84375 8.1125 2.05 7.925 2.325 7.8C3.475 7.2 4.675 6.75 5.925 6.45C7.175 6.15 8.45 6 9.75 6C11.2 6 12.6188 6.1875 14.0063 6.5625C15.3938 6.9375 16.725 7.5 18 8.25V26.4C19.275 25.6 20.6125 25 22.0125 24.6C23.4125 24.2 24.825 24 26.25 24C27.15 24 28.0313 24.075 28.8938 24.225C29.7563 24.375 30.625 24.6 31.5 24.9V6.9C31.875 7.025 32.2438 7.15625 32.6063 7.29375C32.9688 7.43125 33.325 7.6 33.675 7.8C33.95 7.925 34.1562 8.1125 34.2938 8.3625C34.4313 8.6125 34.5 8.875 34.5 9.15V27.225C34.5 27.8 34.2563 28.2375 33.7688 28.5375C33.2813 28.8375 32.775 28.85 32.25 28.575C31.325 28.075 30.3563 27.6875 29.3438 27.4125C28.3312 27.1375 27.3 27 26.25 27C24.75 27 23.3 27.2625 21.9 27.7875C20.5 28.3125 19.2 29.05 18 30ZM21 22.5V8.25L28.5 0.75V15.75L21 22.5ZM15 24.9375V10.0875C14.175 9.7375 13.3187 9.46875 12.4312 9.28125C11.5437 9.09375 10.65 9 9.75 9C8.825 9 7.925 9.0875 7.05 9.2625C6.175 9.4375 5.325 9.7 4.5 10.05V24.9375C5.375 24.6125 6.24375 24.375 7.10625 24.225C7.96875 24.075 8.85 24 9.75 24C10.65 24 11.5312 24.075 12.3938 24.225C13.2563 24.375 14.125 24.6125 15 24.9375Z" fill="white"/>
</g>
</svg>
