<svg width="30" height="31" viewBox="0 0 30 31" fill="none" xmlns="http://www.w3.org/2000/svg">
<path d="M24.75 30.75C24.1 30.75 23.4688 30.7 22.8563 30.6C22.2437 30.5 21.65 30.35 21.075 30.15L0 22.4625L0.75 20.325L11.1 24.1125L13.6875 17.4375L8.325 11.85C7.65 11.15 7.38125 10.3188 7.51875 9.35625C7.65625 8.39375 8.15 7.6625 9 7.1625L14.2125 4.1625C14.6375 3.9125 15.0688 3.76875 15.5063 3.73125C15.9438 3.69375 16.375 3.7625 16.8 3.9375C17.225 4.0875 17.5938 4.325 17.9062 4.65C18.2188 4.975 18.45 5.3625 18.6 5.8125L19.0875 7.425C19.4125 8.5 19.9438 9.45 20.6813 10.275C21.4188 11.1 22.3 11.725 23.325 12.15L24.1125 9.75L26.25 10.425L24.5625 15.6C22.7125 15.3 21.075 14.575 19.65 13.425C18.225 12.275 17.175 10.85 16.5 9.15L12.7125 11.325L17.25 16.5L13.9125 25.125L18.5625 26.8125L21.7125 17.175C22.0625 17.3 22.4125 17.4125 22.7625 17.5125C23.1125 17.6125 23.475 17.7 23.85 17.775L20.6625 27.6L21.825 28.0125C22.275 28.1625 22.7437 28.2812 23.2313 28.3688C23.7188 28.4563 24.225 28.5 24.75 28.5C25.4 28.5 26.0188 28.4375 26.6063 28.3125C27.1938 28.1875 27.7625 28 28.3125 27.75L30 29.4375C29.2 29.8625 28.3625 30.1875 27.4875 30.4125C26.6125 30.6375 25.7 30.75 24.75 30.75ZM21.75 6C20.925 6 20.2188 5.70625 19.6313 5.11875C19.0438 4.53125 18.75 3.825 18.75 3C18.75 2.175 19.0438 1.46875 19.6313 0.88125C20.2188 0.29375 20.925 0 21.75 0C22.575 0 23.2812 0.29375 23.8688 0.88125C24.4563 1.46875 24.75 2.175 24.75 3C24.75 3.825 24.4563 4.53125 23.8688 5.11875C23.2812 5.70625 22.575 6 21.75 6Z" fill="white"/>
</svg>
