<svg width="14" height="27" viewBox="0 0 14 27" xmlns="http://www.w3.org/2000/svg">
    <path
        d="M9.22975 26.9786C9.09346 26.9839 9.00623 26.9946 8.919 26.9946C7.05452 26.9946 5.19548 26.9893 3.331 27C3.06931 27 2.99844 26.9303 2.99844 26.6731C3.00389 22.408 3.00389 18.1375 3.00389 13.8724C3.00389 13.7599 3.00389 13.6474 3.00389 13.5027C1.98988 13.5027 1.00312 13.5027 0 13.5027C0 11.981 0 10.486 0 8.94821C0.103583 8.94821 0.201713 8.94821 0.294392 8.94821C1.11215 8.94821 1.92991 8.94285 2.74766 8.95357C2.95483 8.95357 3.00935 8.89463 3.00935 8.69638C2.99844 7.5015 2.99844 6.30126 3.00935 5.10638C3.0148 4.2705 3.15109 3.45605 3.54361 2.70055C4.10514 1.63427 4.99377 0.943057 6.11682 0.514401C7.03271 0.16076 7.99766 0.0321626 8.96807 0.016088C10.5491 -0.0053448 12.1301 0.0053716 13.7111 1.33956e-05C13.8583 1.33956e-05 13.9782 -0.00534481 13.9782 0.198267C13.9727 1.67177 13.9727 3.14528 13.9727 4.61878C13.9727 4.63486 13.9673 4.65093 13.9455 4.72059C13.8528 4.72059 13.7492 4.72059 13.6456 4.72059C12.6643 4.72059 11.683 4.71523 10.7017 4.72059C10.1347 4.72059 9.67679 4.94564 9.38785 5.43323C9.30062 5.5779 9.24611 5.76544 9.24611 5.9369C9.22975 6.8478 9.24611 7.75869 9.2352 8.66959C9.2352 8.88391 9.30062 8.94285 9.51324 8.94285C10.8762 8.93214 12.2391 8.9375 13.602 8.9375C13.7111 8.9375 13.8146 8.9375 14 8.9375C13.8092 10.4699 13.6238 11.9702 13.433 13.4866C12.0156 13.4866 10.6363 13.4866 9.22975 13.4866C9.22975 17.9929 9.22975 22.4723 9.22975 26.9786Z" />
</svg>