<svg width="31" height="32" viewBox="0 0 31 32" xmlns="http://www.w3.org/2000/svg">
    <path
        d="M30.9849 15.5037C30.9849 17.6781 30.9411 19.8587 30.9974 22.0331C31.0911 25.882 28.673 28.8561 25.5927 30.1808C24.3555 30.7119 23.0559 30.993 21.7125 30.993C17.5075 30.9993 13.2962 31.0555 9.09114 30.9743C5.9233 30.9118 3.3178 29.5872 1.44958 26.9754C0.468616 25.6008 0 24.0388 0 22.3455C0 17.8655 0 13.3918 0 8.91186C0 5.25666 1.78074 2.70114 4.94233 1.03912C6.31694 0.320571 7.81026 0.0144091 9.36607 0.00816093C13.4461 0.00816093 17.5325 -0.0168319 21.6126 0.0206573C24.7804 0.0456502 27.4234 1.2578 29.3728 3.80707C30.46 5.23166 30.9849 6.86869 30.9849 8.66818C30.9849 10.9425 30.9849 13.2231 30.9849 15.5037ZM2.30559 15.5037C2.30559 17.7968 2.30559 20.0837 2.30559 22.3767C2.30559 23.4015 2.54302 24.3637 3.07412 25.2322C4.46747 27.5128 6.57312 28.625 9.18487 28.6687C13.3774 28.7312 17.5762 28.6937 21.775 28.6812C22.806 28.6812 23.8057 28.4688 24.7367 28.0251C27.2734 26.813 28.6918 24.8823 28.6793 21.9831C28.6543 17.5469 28.673 13.1107 28.673 8.67443C28.673 7.41854 28.3169 6.26887 27.5733 5.25666C26.1363 3.31346 24.1493 2.35749 21.775 2.33249C17.5887 2.28251 13.4024 2.31375 9.21611 2.32C8.32261 2.32 7.46036 2.5012 6.6231 2.81361C4.32376 3.66961 2.18687 5.83774 2.28684 9.03057C2.36182 11.1925 2.30559 13.3481 2.30559 15.5037Z" />
    <path
        d="M15.5266 22.1267C11.4965 22.1267 8.24747 18.9152 8.24122 14.9163C8.23497 10.9799 11.509 7.75587 15.5141 7.75587C19.5317 7.74962 22.7933 10.9674 22.7995 14.9351C22.7995 18.8964 19.5442 22.1205 15.5266 22.1267ZM15.5266 19.8149C18.2696 19.8149 20.494 17.6218 20.4877 14.9226C20.4815 12.2483 18.2571 10.0615 15.5266 10.0615C12.7837 10.0615 10.5468 12.2421 10.5468 14.9351C10.5531 17.6343 12.7837 19.8212 15.5266 19.8149Z" />
    <path
        d="M23.6428 5.56909C24.4863 5.56909 25.1736 6.28764 25.1736 7.16863C25.1673 8.04963 24.4738 8.76193 23.6303 8.75568C22.7993 8.74943 22.1182 8.03713 22.1182 7.17488C22.112 6.29388 22.7993 5.56909 23.6428 5.56909Z" />
</svg>