<svg width="23" height="17" viewBox="0 0 23 17" xmlns="http://www.w3.org/2000/svg">
<path d="M3.375 9.75C3.99632 9.75 4.5 10.2537 4.5 10.875V15.375C4.5 15.9963 3.99632 16.5 3.375 16.5H1.125C0.50368 16.5 0 15.9963 0 15.375V10.875C0 10.2537 0.50368 9.75 1.125 9.75H3.375ZM9.375 6.75C9.99632 6.75 10.5 7.25368 10.5 7.875V15.375C10.5 15.9963 9.99632 16.5 9.375 16.5H7.125C6.50368 16.5 6 15.9963 6 15.375V7.875C6 7.25368 6.50368 6.75 7.125 6.75H9.375ZM15.375 3.75C15.9963 3.75 16.5 4.25368 16.5 4.875V15.375C16.5 15.9963 15.9963 16.5 15.375 16.5H13.125C12.5037 16.5 12 15.9963 12 15.375V4.875C12 4.25368 12.5037 3.75 13.125 3.75H15.375ZM21.375 0C21.9963 0 22.5 0.50368 22.5 1.125V15.375C22.5 15.9963 21.9963 16.5 21.375 16.5H19.125C18.5037 16.5 18 15.9963 18 15.375V1.125C18 0.50368 18.5037 0 19.125 0H21.375ZM1.5 15H3V11.25H1.5V15ZM7.5 15H9V8.25H7.5V15ZM13.5 15H15V5.25H13.5V15ZM19.5 15H21V1.5H19.5V15Z"/>
</svg>
