<svg width="200" height="46" viewBox="0 0 200 46" fill="none" xmlns="http://www.w3.org/2000/svg">
    <path fill-rule="evenodd" clip-rule="evenodd" d="M159.615 28.1667L200 0V17.8333L159.615 46V28.1667Z"
        fill="#84BD00" />
    <path fill-rule="evenodd" clip-rule="evenodd" d="M159.615 20.2415H200V34.9615H159.615V20.2415Z" fill="#A50050" />
    <path fill-rule="evenodd" clip-rule="evenodd"
        d="M170.68 20.2415H196.329L175.217 34.9615H159.615V27.936L170.68 20.2415Z" fill="#51284F" />
    <path fill-rule="evenodd" clip-rule="evenodd"
        d="M173.051 22.1412C172.997 22.3546 172.968 22.5758 172.968 22.8026C172.968 23.2218 173.066 23.6221 173.244 23.9889C172.93 23.8609 172.57 23.7881 172.187 23.7881C170.978 23.7881 169.998 24.5121 169.998 25.4052C169.998 26.2983 170.978 27.0223 172.187 27.0223C173.395 27.0223 174.375 26.2983 174.375 25.4052C174.375 25.3567 174.372 25.3087 174.367 25.2613C174.949 25.6608 175.676 25.9219 176.473 25.9833C176.052 27.2832 174.521 28.2782 172.634 28.4277L172.692 29.423C172.692 29.423 172.88 31.1373 173.687 31.0586C174.337 30.9799 174.726 30.5994 174.726 30.5994L174.836 33.118H170.814L171.071 30.6578L171.193 28.3748C169.191 28.064 167.691 26.7878 167.691 25.2607C167.691 23.5008 169.683 22.0742 172.14 22.0742C172.452 22.0742 172.757 22.0973 173.051 22.1412Z"
        fill="white" />
    <path fill-rule="evenodd" clip-rule="evenodd"
        d="M2.85465 20.1229L2.85462 32.8133L9.80013 32.8134V35.4562H2.06042C0.869429 35.4562 0.026264 34.7144 0.000602341 33.5823L0 33.529V20.1229H2.85465ZM50.5278 20.1232C54.8332 20.1232 57.6089 23.1021 57.6089 27.8905C57.6089 32.7047 54.7887 35.4565 50.4337 35.4565C46.1284 35.4565 43.3527 32.6789 43.3527 27.8905C43.3527 23.1257 46.1978 20.1232 50.5278 20.1232ZM20.7362 21.286C20.4344 20.5353 19.8161 20.1232 18.9696 20.1232C18.1101 20.1232 17.4684 20.5667 17.1795 21.3656L11.7329 35.4565H14.7418L15.9474 32.3621H21.8597L23.0655 35.4565H26.1048L20.7563 21.3377L20.7362 21.286ZM35.6853 20.1232C38.3685 20.1232 40.0549 21.5723 40.0549 24.1179C40.0549 25.0627 39.7742 25.8935 39.2338 26.7482L39.1789 26.8337L39.1581 26.8638L38.6646 27.5408L39.354 28.2509C40.1266 29.0418 40.5507 30.134 40.5917 31.1731L40.5942 31.2577L40.595 31.3405C40.595 33.8536 38.7362 35.4247 35.8838 35.4565H35.797H31.1415C29.9505 35.4565 29.1073 34.7147 29.0816 33.5826L29.081 33.5292V22.0405C29.081 20.8976 29.8692 20.1465 31.0478 20.1232H31.1043H35.6853ZM71.477 24.6816C71.477 21.9074 69.7772 20.1232 66.9893 20.1232H62.5531H62.4967C61.3203 20.1465 60.5341 20.8981 60.5341 22.0405V35.4565H63.347L63.3469 29.8672H66.8951L69.531 35.4565H72.627L69.4591 28.8498L70.2913 27.7786L70.3511 27.7004C71.0606 26.76 71.477 25.735 71.477 24.6816ZM81.9225 20.1232C82.769 20.1232 83.3873 20.5353 83.6891 21.286L83.7092 21.3377L89.0577 35.4565H86.0184L84.8125 32.3621H78.9003L77.6947 35.4565H74.6858L80.1323 21.3656C80.4213 20.5667 81.063 20.1232 81.9225 20.1232ZM94.0161 32.8136L94.0161 20.1232H91.1614V33.5292L91.162 33.5826C91.1877 34.7147 92.0309 35.4565 93.2219 35.4565H100.962V32.8137L94.0161 32.8136ZM50.2724 22.8791C47.6295 22.8791 46.126 24.6519 46.126 27.9562C46.126 31.2575 47.7031 33.0704 50.3649 33.0704C53.0006 33.0704 54.4927 31.302 54.4927 27.9562C54.4927 24.6821 52.9254 22.8791 50.2724 22.8791ZM31.8543 29.0098H36.3188L37.1598 29.869L37.208 29.9191C37.6332 30.368 37.8216 30.9551 37.8216 31.4393L37.8211 31.486C37.8011 32.398 37.1879 32.9012 35.8854 32.9012L31.8543 32.9011V29.0098ZM18.9603 24.3374L16.8546 29.8333H21.0013L18.9603 24.3374ZM79.8076 29.8331L81.9131 24.3374L83.9541 29.8331H79.8076ZM66.9945 22.5361L63.3072 22.5361V27.2793H67.3862L67.965 26.471C68.4913 25.7257 68.7445 25.1807 68.7598 24.6552L68.7605 24.6044C68.7605 23.3254 68.2701 22.5546 67.0521 22.5366L66.9945 22.5361ZM31.6829 22.7059L35.5083 22.706L35.5676 22.7063C36.7201 22.7207 37.1362 23.1607 37.1362 24.1355L37.1352 24.2023C37.1219 24.6683 36.9687 25.1081 36.6691 25.5951L36.6339 25.6513L36.0846 26.423H31.6829V22.7059Z"
        fill="#51284F" />
    <path fill-rule="evenodd" clip-rule="evenodd"
        d="M128.235 23.9559V26.3231H131.207V27.4183H128.235V33.0749C128.235 33.0749 128.235 33.559 128.674 33.9669C129.418 34.5607 131.311 33.9669 131.311 33.9669V35.0546C131.311 35.0546 130.688 35.4554 129.508 35.4554C128.328 35.4554 127.011 34.6816 127.011 32.6823V27.4183H125.787V26.3231H127.011V24.3209L128.235 23.9559ZM109.878 23.9606L108.654 24.3257V35.2776H109.878V30.7443H111.356L114.32 35.2776H115.682L112.326 30.1667L115.647 26.3334H114.249L111.277 29.5958H109.878V23.9606ZM124.176 26.3562V34.1475C124.176 34.1475 123.826 35.4561 121.248 35.4561H120.39C118.271 35.4561 117.221 33.8078 117.221 32.9161V26.3562H118.443V32.1888C118.443 32.9161 118.819 34.1784 120.411 34.1784H121.423C122.515 34.1784 123.04 33.7825 123.04 33.2629V26.3562H124.176ZM136.058 29.8032L134.354 26.3351H133.13L135.411 30.7108C135.411 30.7108 135.428 30.7496 135.472 30.8067C135.428 30.8637 135.411 30.9026 135.411 30.9026L133.13 35.2783H134.354L136.058 31.8101C136.058 31.8101 136.224 31.2868 136.6 31.2634L136.626 31.2635L136.652 31.2634C137.031 31.2867 137.243 31.8101 137.243 31.8101L138.899 35.2783H140.123L137.893 30.9026C137.893 30.9026 137.872 30.8637 137.823 30.8067C137.872 30.7496 137.893 30.7108 137.893 30.7108L140.123 26.3351H138.899L137.243 29.8032C137.243 29.8032 137.11 30.1683 136.626 30.1683C136.143 30.1683 136.058 29.8032 136.058 29.8032ZM142.161 26.7163C142.161 26.7163 143.339 26.1605 146.09 26.1605C148.842 26.1605 149.039 28.6613 149.039 29.2357V35.457H147.815V34.7205C147.815 34.7205 146.298 35.4535 144.693 35.4535C142.564 35.4535 141.868 34.2209 141.868 32.8933C141.868 31.3615 143.121 30.3461 144.693 30.3461H147.815V28.872C147.815 28.872 147.673 27.2458 145.523 27.2458C143.374 27.2458 142.433 27.7754 142.433 27.7754L142.161 26.7163ZM147.815 31.4345H144.856C144.856 31.4345 143.1 31.4803 143.1 32.911C143.1 34.3417 145.026 34.3714 145.026 34.3714C146.422 34.3714 147.815 33.8281 147.815 33.8281V31.4345Z"
        fill="#51284F" />
</svg>