<?xml version="1.0" encoding="UTF-8"?>
<svg id="Capa_1" xmlns="http://www.w3.org/2000/svg" version="1.1" viewBox="0 0 705.3 252.2">
  <!-- Generator: Adobe Illustrator 29.5.1, SVG Export Plug-In . SVG Version: 2.1.0 Build 141)  -->
  <defs>
    <style>
      .st0 {
        fill: #7d54fb;
      }
    </style>
  </defs>
  <g>
    <path class="st0" d="M96.32,80.81c13.28-16.93,33.88-27.31,56.09-27.22,4.58.02,9.07.51,13.45,1.38-.51-.75-1.01-1.49-1.57-2.21-13.15-16.86-33.53-27.27-55.59-27.37-22.22-.09-42.81,10.28-56.09,27.22-7.02,8.94-10.62,20.11-10.62,31.48v103.4h43.71v-75.2c0-11.37,3.6-22.53,10.62-31.48"/>
    <path class="st0" d="M208,80.97c-10.42-13.37-25.39-22.65-42.14-25.99,5.89,8.51,8.92,18.71,8.92,29.1v103.4h-89.08v28.2h132.79v-103.4c0-11.3-3.54-22.4-10.5-31.31"/>
  </g>
  <g>
    <path d="M296.76,118.66h18.37l-9.18-25.84-9.18,25.84h0ZM299.7,78.9h12.5l25.84,67.21h-12.69l-6.34-16.48h-26.13l-6.34,16.48h-12.78l25.94-67.21h0Z"/>
    <g>
      <path d="M358.96,97.83v8.42c2.36-5.87,7.29-9.56,13.73-9.56,1.14,0,2.27.19,2.93.38v11.83c-.47-.19-1.61-.38-2.65-.38-8.52,0-13.82,6.43-13.82,16.38v21.2h-12.3v-48.28h12.11Z"/>
      <path d="M398.25,97.83v8.42c2.36-5.87,7.29-9.56,13.73-9.56,1.14,0,2.27.19,2.93.38v11.83c-.47-.19-1.61-.38-2.65-.38-8.52,0-13.82,6.43-13.82,16.38v21.2h-12.3v-48.28h12.11Z"/>
      <path d="M438.95,137.78c6.63,0,11.45-5.21,11.45-11.36v-2.08l-11.27,2.18c-4.54.86-6.72,2.65-6.72,5.77s2.65,5.49,6.53,5.49M436.31,118.75l13.91-2.74v-.57c0-5.4-3.88-8.04-9.66-8.04-5.21,0-9.75,2.46-12.78,5.96l-6.43-7.86c4.54-5.4,11.45-8.81,20.07-8.81,12.88,0,20.73,7.2,20.73,18.84v30.58h-11.36v-6.53c-2.74,4.83-7.86,7.67-14.29,7.67-9.18,0-15.91-5.96-15.91-14.2,0-7.29,5.49-12.3,15.71-14.3"/>
      <path d="M481.18,130.2c2.65,4.16,6.43,7.1,11.55,7.1,4.54,0,7.29-1.7,7.29-4.16,0-3.03-2.55-4.26-10.41-6.91-9.84-3.22-15.15-7.29-15.15-15.15,0-8.33,8.14-14.39,18.56-14.39,7.95,0,14.49,3.79,17.61,9.56l-8.23,5.96c-1.99-3.32-5.02-5.68-9.56-5.68-3.88,0-6.82,1.8-6.82,4.45,0,2.46,2.65,3.88,10.03,6.53,9.18,3.41,15.52,6.53,15.52,15.34,0,8.14-7.67,14.39-18.84,14.39-8.62,0-16.29-4.07-19.88-10.89l8.33-6.15h0Z"/>
      <path d="M538.45,137.78c6.63,0,11.45-5.21,11.45-11.36v-2.08l-11.27,2.18c-4.54.86-6.72,2.65-6.72,5.77s2.65,5.49,6.53,5.49M535.8,118.75l13.91-2.74v-.57c0-5.4-3.88-8.04-9.66-8.04-5.21,0-9.75,2.46-12.78,5.96l-6.43-7.86c4.54-5.4,11.45-8.81,20.07-8.81,12.88,0,20.73,7.2,20.73,18.84v30.58h-11.36v-6.53c-2.74,4.83-7.86,7.67-14.29,7.67-9.18,0-15.91-5.96-15.91-14.2,0-7.29,5.49-12.3,15.71-14.3"/>
      <path d="M578.31,97.83v-13.16h11.93v13.16h11.45v9.84h-11.45v21.49c0,4.83,2.36,7.01,6.72,7.01,1.42,0,3.79-.19,5.96-1.61v10.8c-2.18,1.14-5.21,1.89-9.18,1.89-9.84,0-15.81-5.87-15.81-16.28v-23.29h-6.82v-9.84h7.21Z"/>
      <path d="M622.04,116.67h22.63v-.09c-.47-5.87-5.02-9.56-10.8-9.56-6.06,0-10.89,3.6-11.83,9.66M633.98,96.7c13.73,0,22.72,9.56,22.72,22.34,0,2.08-.38,4.26-.75,5.96h-33.89c.75,7.57,7.1,11.55,14.2,11.55,5.49,0,9.84-2.36,12.69-5.4l6.82,8.14c-5.87,5.59-12.21,7.95-20.07,7.95-15.9,0-26.41-10.98-26.41-25.18s10.32-25.37,24.71-25.37"/>
    </g>
  </g>
  <g>
    <path d="M276.51,180.79h8.3v1.37h-8.3v-1.37ZM275.36,187.2h-1.6l6.09-16.74h1.64l6.09,16.74h-1.6l-5.25-14.75h-.11l-5.24,14.75h0,0Z"/>
    <polygon points="289.77 171.84 289.77 170.46 301.9 170.46 301.9 171.84 296.59 171.84 296.59 187.2 295.07 187.2 295.07 171.84 289.77 171.84"/>
    <polygon points="307.64 187.2 307.64 170.47 317.35 170.47 317.35 171.84 309.16 171.84 309.16 178.14 316.83 178.14 316.83 179.52 309.16 179.52 309.16 185.83 317.51 185.83 317.51 187.2 307.64 187.2"/>
    <polygon points="349.57 187.2 349.57 170.47 359.28 170.47 359.28 171.84 351.09 171.84 351.09 178.14 358.76 178.14 358.76 179.52 351.09 179.52 351.09 185.83 359.44 185.83 359.44 187.2 349.57 187.2"/>
    <g>
      <path d="M372.91,179.66l4.12,7.55h-1.76l-4.08-7.55h1.72ZM365.53,187.2v-16.74h5.4c1.19,0,2.18.21,2.98.64s1.4,1.02,1.81,1.77c.4.75.61,1.62.61,2.6s-.21,1.83-.61,2.59c-.4.75-1.01,1.33-1.8,1.75-.8.42-1.78.63-2.96.63h-4.6v-1.4h4.56c.87,0,1.6-.15,2.18-.44.58-.29,1.01-.7,1.3-1.23s.43-1.17.43-1.89-.15-1.37-.43-1.92c-.29-.55-.73-.97-1.3-1.27-.58-.3-1.31-.45-2.19-.45h-3.83v15.36h-1.54Z"/>
      <path d="M389.73,179.66l4.12,7.55h-1.76l-4.08-7.55h1.72ZM382.35,187.2v-16.74h5.4c1.19,0,2.18.21,2.98.64.8.43,1.4,1.02,1.81,1.77.4.75.61,1.62.61,2.6s-.21,1.83-.61,2.59c-.4.75-1.01,1.33-1.8,1.75-.8.42-1.78.63-2.96.63h-4.6v-1.4h4.56c.87,0,1.6-.15,2.18-.44.58-.29,1.01-.7,1.3-1.23s.43-1.17.43-1.89-.15-1.37-.43-1.92c-.29-.55-.72-.97-1.3-1.27s-1.31-.45-2.19-.45h-3.83v15.36h-1.54Z"/>
    </g>
    <rect x="399.17" y="170.47" width="1.53" height="16.74"/>
    <path d="M408.62,180.79h8.3v1.37h-8.3v-1.37ZM407.48,187.2h-1.6l6.09-16.74h1.64l6.09,16.74h-1.6l-5.25-14.75h-.11l-5.24,14.75h0,0Z"/>
    <polygon points="424.85 187.2 424.85 170.47 426.39 170.47 426.39 179.49 426.53 179.49 434.7 170.47 436.71 170.47 429.56 178.21 436.68 187.2 434.82 187.2 428.61 179.27 426.39 181.77 426.39 187.2 424.85 187.2"/>
    <polygon points="450.01 187.2 450.01 186.06 459.29 171.84 449.96 171.84 449.96 170.47 461.12 170.47 461.12 171.62 451.81 185.83 461.2 185.83 461.2 187.2 450.01 187.2"/>
    <path d="M468.38,180.79h8.3v1.37h-8.3v-1.37ZM467.22,187.2h-1.6l6.09-16.74h1.64l6.09,16.74h-1.6l-5.25-14.75h-.11l-5.24,14.75h0,0Z"/>
    <path d="M502.98,180.79h8.3v1.37h-8.3v-1.37ZM501.82,187.2h-1.6l6.09-16.74h1.64l6.09,16.74h-1.6l-5.24-14.75h-.11l-5.24,14.75h-.02,0Z"/>
    <polygon points="519.21 187.2 519.21 170.47 520.73 170.47 520.73 185.83 528.71 185.83 528.71 187.2 519.21 187.2"/>
    <g>
      <path d="M535.98,185.83h3.29c1.44,0,2.64-.28,3.62-.85.97-.57,1.7-1.38,2.18-2.42.49-1.05.73-2.3.73-3.76s-.25-2.68-.71-3.73c-.47-1.05-1.17-1.84-2.09-2.39-.93-.56-2.06-.83-3.42-.83h-3.58v13.99h-.02,0ZM539.36,187.2h-4.9v-16.74h5.2c1.59,0,2.96.33,4.1.99,1.14.67,2,1.62,2.61,2.86.61,1.24.91,2.73.91,4.47s-.31,3.26-.93,4.52-1.52,2.22-2.7,2.89-2.6,1-4.28,1"/>
      <path d="M564.42,170.47h1.53v11.09c0,1.14-.27,2.16-.8,3.05-.53.9-1.28,1.6-2.23,2.12s-2.06.77-3.32.77-2.36-.26-3.31-.78c-.95-.51-1.7-1.23-2.23-2.12s-.8-1.91-.8-3.05v-11.09h1.53v10.98c0,.89.2,1.68.6,2.37.39.69.96,1.24,1.68,1.64s1.57.6,2.54.6,1.82-.2,2.54-.6c.73-.39,1.29-.94,1.68-1.64s.59-1.48.59-2.37v-10.98h0Z"/>
    </g>
    <polygon points="572.03 187.2 572.03 186.06 581.32 171.84 571.98 171.84 571.98 170.47 583.15 170.47 583.15 171.62 573.85 185.83 583.23 185.83 583.23 187.2 572.03 187.2"/>
    <path d="M333.9,185.83h4.43c1.29,0,2.24-.28,2.86-.86s.93-1.29.93-2.16c0-.63-.15-1.22-.46-1.74s-.75-.93-1.3-1.24c-.56-.31-1.22-.45-1.96-.45h-4.5v6.45h0,0ZM333.9,178.03h4.26c.66,0,1.23-.14,1.73-.41s.88-.65,1.16-1.13.42-1.03.42-1.64c0-.89-.29-1.61-.87-2.17s-1.44-.84-2.58-.84h-4.12v6.19h0ZM332.36,187.2v-16.74h5.65c1.09,0,2,.19,2.72.57.73.38,1.28.9,1.64,1.56.37.66.55,1.41.55,2.24,0,.69-.12,1.29-.35,1.79s-.56.9-.96,1.2c-.4.31-.86.52-1.35.66v.13c.54.03,1.06.23,1.57.57.51.34.93.81,1.25,1.43.33.61.49,1.34.49,2.19s-.19,1.6-.57,2.26c-.38.66-.95,1.18-1.73,1.56s-1.76.57-2.96.57h-5.95,0,0Z"/>
    <path d="M486.13,185.83h4.43c1.29,0,2.24-.28,2.86-.86s.93-1.29.93-2.16c0-.63-.15-1.22-.46-1.74s-.75-.93-1.3-1.24c-.56-.31-1.22-.45-1.96-.45h-4.5v6.45h0,0ZM486.13,178.03h4.26c.66,0,1.23-.14,1.73-.41s.88-.65,1.16-1.13.42-1.03.42-1.64c0-.89-.29-1.61-.87-2.17s-1.44-.84-2.58-.84h-4.12v6.19h0ZM484.6,187.2v-16.74h5.65c1.09,0,2,.19,2.72.57.73.38,1.28.9,1.64,1.56.37.66.55,1.41.55,2.24,0,.69-.12,1.29-.35,1.79s-.56.9-.96,1.2c-.4.31-.86.52-1.35.66v.13c.54.03,1.06.23,1.57.57.51.34.93.81,1.25,1.43.33.61.49,1.34.49,2.19s-.19,1.6-.57,2.26c-.38.66-.95,1.18-1.73,1.56s-1.76.57-2.96.57h-5.95,0,0Z"/>
  </g>
</svg>