<svg width="136" height="43" viewBox="0 0 136 43" fill="none" xmlns="http://www.w3.org/2000/svg">
<g clip-path="url(#clip0_202_4645)">
<path d="M39.238 4.47C40.7053 4.47 41.9143 4.91433 42.865 5.803C43.8363 6.671 44.322 7.818 44.322 9.244C44.322 10.3187 44.0327 11.259 43.454 12.065C42.896 12.871 42.183 13.429 41.315 13.739V13.832C42.307 14.1627 43.1233 14.7723 43.764 15.661C44.4253 16.5497 44.756 17.6037 44.756 18.823C44.756 19.877 44.508 20.7967 44.012 21.582C43.516 22.3673 42.8443 22.9667 41.997 23.38C41.1703 23.7933 40.2507 24 39.238 24H31.829V4.47H39.238ZM38.525 12.84C39.455 12.84 40.2093 12.5403 40.788 11.941C41.3667 11.3417 41.656 10.6183 41.656 9.771C41.656 8.779 41.3873 8.02467 40.85 7.508C40.3333 6.99133 39.6203 6.733 38.711 6.733H34.34V12.84H38.525ZM38.928 21.706C39.8787 21.706 40.6537 21.427 41.253 20.869C41.8523 20.2903 42.152 19.4947 42.152 18.482C42.152 17.5727 41.8317 16.7873 41.191 16.126C40.571 15.4647 39.7547 15.134 38.742 15.134H34.34V21.706H38.928ZM59.6338 4.47V6.733H50.1168V12.84H58.3938V15.134H50.1168V21.706H59.8198V24H47.5748V4.47H59.6338ZM68.9626 4.098C70.7813 4.098 72.2486 4.55267 73.3646 5.462C74.5013 6.37133 75.0696 7.756 75.0696 9.616V9.957H72.4966V9.523C72.4966 8.55167 72.166 7.79733 71.5046 7.26C70.864 6.702 70.0373 6.423 69.0246 6.423C67.9293 6.423 67.051 6.65033 66.3896 7.105C65.7283 7.55967 65.3976 8.24167 65.3976 9.151C65.3976 9.81233 65.5836 10.36 65.9556 10.794C66.3483 11.2073 66.8236 11.5483 67.3816 11.817C67.9603 12.065 68.7456 12.3543 69.7376 12.685C70.9983 13.0983 72.011 13.491 72.7756 13.863C73.5403 14.235 74.1913 14.7827 74.7286 15.506C75.2866 16.2293 75.5656 17.18 75.5656 18.358C75.5656 20.4247 74.9663 21.9437 73.7676 22.915C72.569 23.8657 70.957 24.341 68.9316 24.341C66.989 24.341 65.3976 23.8657 64.1576 22.915C62.9383 21.9643 62.3286 20.4867 62.3286 18.482L62.3596 17.893H64.9946L64.9636 18.482C64.9636 19.6393 65.315 20.528 66.0176 21.148C66.7203 21.7473 67.6503 22.047 68.8076 22.047C70.1303 22.047 71.143 21.768 71.8456 21.21C72.569 20.652 72.9306 19.846 72.9306 18.792C72.9306 18.0893 72.7343 17.5107 72.3416 17.056C71.9696 16.6013 71.4943 16.25 70.9156 16.002C70.337 15.7333 69.5413 15.4337 68.5286 15.103C67.2886 14.6897 66.2863 14.297 65.5216 13.925C64.757 13.553 64.106 13.0053 63.5686 12.282C63.0313 11.538 62.7626 10.5667 62.7626 9.368C62.7626 7.632 63.3413 6.31967 64.4986 5.431C65.656 4.54233 67.144 4.098 68.9626 4.098ZM89.6685 24L88.3355 19.66H80.5855L79.2525 24H76.7415L82.9725 4.47H86.1965L92.3655 24H89.6685ZM84.3985 6.485C84.3778 6.65033 84.3158 6.99133 84.2125 7.508C84.1298 8.004 84.0471 8.38633 83.9645 8.655L81.2985 17.366H87.6225L84.9875 8.655C84.9048 8.38633 84.8118 8.004 84.7085 7.508C84.6051 6.99133 84.5431 6.65033 84.5225 6.485H84.3985ZM94.3473 4.47H96.8893V24H94.3473V4.47ZM106.932 4.47C109.288 4.47 111.107 5.276 112.388 6.888C113.69 8.5 114.341 10.856 114.341 13.956C114.341 17.242 113.69 19.7427 112.388 21.458C111.107 23.1527 109.288 24 106.932 24H100.856V4.47H106.932ZM106.715 21.706C108.306 21.706 109.536 21.117 110.404 19.939C111.293 18.7403 111.737 16.9733 111.737 14.638V13.243C111.737 11.0937 111.293 9.47133 110.404 8.376C109.536 7.28067 108.306 6.733 106.715 6.733H103.398V21.706H106.715ZM129.777 4.47V6.733H120.26V12.84H128.537V15.134H120.26V21.706H129.963V24H117.718V4.47H129.777Z" fill="#800080"/>
<path d="M37.279 38L37.2215 31.813L35.623 37.218H34.4155L32.817 31.813L32.7595 38H31.805L31.874 30.4675H33.323L35.025 36.344L36.7155 30.4675H38.1645L38.2335 38H37.279ZM43.871 30.4675V31.353H40.881V33.7335H43.641V34.6075H40.881V37.1145H43.871V38H39.9035V30.4675H43.871ZM48.9351 38L46.4511 31.6405V38H45.4851V30.4675H47.0491L49.4871 36.827V30.4675H50.4531V38H48.9351ZM54.2829 30.3295C55.1953 30.3295 55.8968 30.5902 56.3874 31.1115C56.8858 31.6252 57.1349 32.3688 57.1349 33.3425V35.2285C57.1349 36.1638 56.8858 36.8845 56.3874 37.3905C55.8968 37.8888 55.1761 38.138 54.2254 38.138C53.5738 38.138 52.8914 38.115 52.1784 38.069V30.3755C52.8684 30.3448 53.5699 30.3295 54.2829 30.3295ZM54.2254 31.1575C53.9878 31.1575 53.6313 31.1652 53.1559 31.1805V37.2295C53.6083 37.2755 53.9648 37.2985 54.2254 37.2985C54.8158 37.2985 55.2834 37.1298 55.6284 36.7925C55.9811 36.4475 56.1574 35.953 56.1574 35.309V33.2735C56.1574 32.5758 55.9888 32.0507 55.6514 31.698C55.3141 31.3377 54.8388 31.1575 54.2254 31.1575ZM59.7257 30.4675V38H58.7482V30.4675H59.7257ZM65.5948 30.4675V31.238L62.1908 37.1145H65.5948V38H61.0523V37.2295L64.4563 31.353H61.1213V30.4675H65.5948ZM69.7747 30.4675L72.0862 38H71.0282L70.5337 36.252H67.7622L67.2677 38H66.2672L68.5672 30.4675H69.7747ZM69.1537 31.3645L68.0037 35.378H70.2922L69.1537 31.3645ZM74.0783 30.4675V37.1375H77.0683V38H73.1008V30.4675H74.0783ZM82.2455 30.4675V31.353H79.2555V33.7335H82.0155V34.6075H79.2555V37.1145H82.2455V38H78.278V30.4675H82.2455ZM89.8935 30.4675V31.353H86.9035V33.7335H89.6635V34.6075H86.9035V37.1145H89.8935V38H85.926V30.4675H89.8935ZM92.485 30.4675V37.1375H95.475V38H91.5075V30.4675H92.485ZM101.561 30.4675L98.6743 34.113L101.86 38H100.606L97.6623 34.3085V38H96.6848V30.4675H97.6623V34.1015L100.468 30.4675H101.561ZM105.521 30.4675L107.833 38H106.775L106.28 36.252H103.509L103.014 38H102.014L104.314 30.4675H105.521ZM104.9 31.3645L103.75 35.378H106.039L104.9 31.3645ZM110.848 30.3295C111.753 30.3295 112.42 30.5058 112.849 30.8585C113.279 31.2112 113.493 31.7057 113.493 32.342V32.6295C113.493 33.0742 113.371 33.469 113.125 33.814C112.88 34.1513 112.527 34.389 112.067 34.527L114.022 38H112.93L111.101 34.734C111.04 34.7417 110.917 34.7455 110.733 34.7455C110.427 34.7455 110.124 34.734 109.825 34.711V38H108.847V30.3755C109.706 30.3448 110.373 30.3295 110.848 30.3295ZM110.825 31.1575C110.572 31.1575 110.239 31.1652 109.825 31.1805V33.8945C110.239 33.9328 110.584 33.952 110.86 33.952C111.964 33.952 112.516 33.5035 112.516 32.6065V32.3765C112.516 31.9625 112.382 31.6558 112.113 31.4565C111.845 31.2572 111.416 31.1575 110.825 31.1575ZM119.742 30.4675V31.353H117.557V38H116.579V31.353H114.394V30.4675H119.742ZM124.921 30.4675V31.353H121.931V33.7335H124.691V34.6075H121.931V37.1145H124.921V38H120.954V30.4675H124.921ZM129.218 30.4675L131.529 38H130.471L129.977 36.252H127.205L126.711 38H125.71L128.01 30.4675H129.218ZM128.597 31.3645L127.447 35.378H129.735L128.597 31.3645Z" fill="#800080"/>
<rect x="5.5" y="5.5" width="21" height="32" stroke="#800080"/>
</g>
<defs>
<clipPath id="clip0_202_4645">
<rect width="136" height="43" fill="white"/>
</clipPath>
</defs>
</svg>
