<svg width="583" height="157" viewBox="0 0 583 157" fill="none" xmlns="http://www.w3.org/2000/svg">
<g clip-path="url(#clip0_539_20728)">
<path d="M49.6271 8.97485H43.7446V20.5763H49.6271V8.97485Z" fill="#B11CAB"/>
<path d="M49.6271 134.957H43.7446V144.702H49.6271V134.957Z" fill="#B11CAB"/>
<path d="M49.6271 144.702H43.7446L44.548 151.144H48.8237L49.6271 144.702Z" fill="#B11CAB"/>
<path d="M46.6906 157L45.3516 149.64H48.0204L46.6906 157Z" fill="#B11CAB"/>
<path d="M55.4448 1.90264C53.8103 2.47807 53.2562 2.63585 50.7259 2.63585C49.2945 2.63585 43.9384 0 41.8884 0C30.2343 0 9.27169 12.0377 9.27169 12.0377L8.3667 14.4786C15.7729 10.6733 32.1181 7.28571 43.7445 8.97488H49.627C51.1692 7.42492 54.8261 5.23457 58.1136 5.23457C58.1136 5.23457 63.2296 7.87042 64.5871 7.87042H69.2782L70.2571 5.38307C63.719 1.18799 58.1228 0.946678 55.4448 1.90264ZM31.9981 6.3019C31.3424 6.3019 30.8161 5.77288 30.8161 5.11392C30.8161 4.45495 31.3424 3.92593 31.9981 3.92593C32.6537 3.92593 33.1801 4.46424 33.1801 5.11392C33.1801 5.7636 32.6445 6.3019 31.9981 6.3019ZM36.6523 5.9585C35.812 5.9585 35.1379 5.2717 35.1379 4.42711C35.1379 3.58253 35.8212 2.89572 36.6523 2.89572C37.4834 2.89572 38.176 3.58253 38.176 4.42711C38.176 5.2717 37.4927 5.9585 36.6523 5.9585ZM42.3316 6.00491C41.3435 6.00491 40.5309 5.19745 40.5309 4.19508C40.5309 3.19272 41.3343 2.38526 42.3316 2.38526C43.329 2.38526 44.1324 3.19272 44.1324 4.19508C44.1324 5.19745 43.329 6.00491 42.3316 6.00491Z" fill="#B11CAB"/>
<path d="M67.3113 121.37C68.7242 120.107 71.3653 117.75 73.1661 112.311C73.3785 111.68 73.4893 111.04 73.517 110.418C73.6001 108.385 72.7136 106.427 70.9221 104.775L70.7189 104.589C69.9524 103.875 69.2229 103.197 68.0501 102.984C67.6345 102.91 67.1543 102.956 66.7388 102.984C66.0093 103.012 65.566 103.216 64.9657 103.606C64.6148 103.828 64.2177 104.079 63.9499 104.404C63.6729 104.729 63.3866 104.998 63.165 105.36C62.9803 105.647 62.851 105.471 63.0265 105.23C63.3497 104.766 63.756 104.265 64.1531 103.865C64.5871 103.439 65.1966 103.346 65.3259 102.668C65.4644 102 65.1412 101.192 64.7718 100.645C63.5713 98.9 61.1241 98.4174 59.1849 98.1204C56.553 97.7213 55.0662 97.9626 52.8315 99.5683C52.5267 99.791 52.2681 100.069 52.0003 100.339C51.8156 100.524 51.4555 101.053 51.16 100.988C51.16 100.663 51.5294 100.487 51.7141 100.274C51.9542 99.9859 52.1481 99.791 52.4621 99.5683C53.0993 99.0949 53.6903 98.4917 54.4383 98.2225C54.6322 98.1576 54.7707 98.0555 54.9554 97.9627C55.1955 97.842 55.4633 97.8234 55.6849 97.6657C55.925 97.5079 56.082 97.2758 56.2298 97.0345C56.5807 96.4591 56.9593 95.9022 57.4303 95.4196C57.9197 94.9277 58.3076 94.3244 58.7508 93.7954C59.2218 93.2385 59.7574 92.7281 60.293 92.2362C60.6255 91.9299 60.9579 91.6236 61.2996 91.3266C61.9553 90.7419 62.6109 90.1201 63.3127 89.5818L64.1346 88.8857C65.2428 87.9297 65.7969 87.3636 65.8153 86.881C65.8153 86.7696 65.7969 86.6675 65.7507 86.5654C65.4736 85.9807 64.6333 86.0178 62.3985 86.4355C59.2033 87.0294 56.1651 88.6537 53.0623 90.4078C51.3354 91.3823 49.5993 92.4218 48.011 93.6098C46.5796 94.6864 45.0651 95.7259 43.7631 96.9974C43.4675 97.2851 43.2274 97.61 43.0335 97.9719C42.738 98.5288 42.5164 99.0857 42.1378 99.6054C42.0362 99.7446 41.9069 100.097 41.6853 100.069C41.6299 99.791 41.8053 99.5868 41.9438 99.3641C42.0916 99.1321 42.2763 98.8908 42.3963 98.6495C42.7842 97.8234 43.1259 96.9974 43.4952 96.1714C44.0586 94.8813 44.2987 93.6748 44.3633 92.2455C44.3818 91.6607 44.3725 91.076 44.3264 90.4913C44.2617 89.7024 44.1047 88.533 43.7353 87.4378L43.4214 86.816C43.3106 86.6211 43.0982 86.2498 43.0889 86.1292L43.209 83.0942L42.5626 83.317L42.2393 83.4284C41.4175 83.7161 40.7618 83.9388 39.9584 83.8646C38.3331 83.7161 37.3635 84.3936 36.1353 85.2475L35.6274 85.5909C34.787 86.1663 33.8543 86.3705 32.8662 86.584L30.9362 87.113C30.456 87.2986 28.8676 89.3497 29.0246 90.3707C29.0985 90.7976 29.4217 91.0668 29.8927 91.0853L31.047 91.1596C31.9981 91.2338 32.9031 91.3081 33.9744 91.1039L34.6023 90.9647C35.7289 90.6955 36.5046 90.5656 37.0403 91.206C37.3265 91.5494 37.4466 91.9485 37.4281 92.3754C37.3265 94.8349 35.4519 96.6262 34.1683 98.4638C32.8847 100.311 31.204 101.991 29.6064 103.578C28.6829 104.506 27.7779 105.731 26.4666 106.13C24.6474 106.687 22.2926 105.518 20.6119 106.501C20.1871 106.752 18.5341 108.07 18.5618 108.655C18.6449 110.242 23.4377 109.481 24.2226 108.896C22.4865 110.204 21.1844 110.613 19.0697 110.854C17.4444 111.04 15.7452 111.263 15.4497 113.202C17.9338 114.242 21.0921 113.991 23.7055 113.75C24.712 113.657 25.7094 113.518 26.6513 113.165C27.7872 112.738 28.5352 111.764 29.6433 111.328C30.6776 110.919 30.6407 111.216 31.4902 111.754C34.5931 113.703 38.7579 115.374 42.4425 115.318C44.9359 115.281 47.2814 114.418 49.0545 113.666L50.9014 112.683C51.751 112.181 52.5452 111.708 53.4502 111.476C54.5583 111.198 54.5768 111.244 55.214 112.46C55.8604 113.694 56.7746 114.418 58.2337 114.845C61.2811 115.755 64.661 114.947 66.2494 112.079C66.591 111.476 66.6187 110.715 67.4037 110.687C69.4538 110.622 68.3087 114.297 68.0039 115.188L67.9485 115.346C67.496 116.655 66.748 117.926 65.9908 119.077C65.7322 119.467 65.3351 120.256 64.8919 120.46C64.1346 120.813 63.8114 119.309 64.0423 119.226C62.9803 119.616 62.6571 121.5 62.537 122.446C62.4816 122.864 62.4355 123.282 62.3616 123.699C62.3062 124.006 62.0661 124.525 62.0938 124.822C62.1769 125.518 63.1281 124.85 63.5251 124.702C64.2085 124.442 64.9103 124.228 65.5937 123.987C66.5264 123.662 68.0409 123.449 68.7704 122.762C68.5488 122.975 67.062 122.883 66.7757 122.808C65.7876 122.548 66.8865 121.769 67.2744 121.379L67.3113 121.37ZM37.1418 86.0364C38.3516 85.4888 38.6655 85.5723 38.7394 86.1199C38.8133 86.6582 35.3596 86.8438 37.1418 86.0364Z" fill="#B11CAB"/>
<path d="M7.72026 108.989C6.56594 108.989 5.39314 108.951 4.22034 108.886C4.01718 108.877 3.79555 108.961 3.65703 109.118C3.50928 109.276 3.47234 109.471 3.54622 109.61C3.85096 110.186 4.1557 110.752 4.47891 111.318C4.54355 111.429 4.67284 111.494 4.82983 111.504C6.01186 111.522 7.17542 111.504 8.33898 111.467C8.54214 111.467 8.74531 111.346 8.88383 111.188C9.02235 111.021 9.05005 110.845 8.97617 110.715C8.6622 110.204 8.35745 109.685 8.06194 109.165C8.00654 109.063 7.87725 108.998 7.7295 108.998L7.72026 108.989Z" fill="#B11CAB"/>
<path d="M6.11344 105.87C4.95911 105.787 3.79555 105.675 2.63199 105.517C2.42883 105.49 2.2072 105.564 2.05021 105.712C1.89322 105.861 1.83781 106.047 1.90245 106.195C2.16102 106.789 2.43806 107.383 2.72434 107.968C2.77974 108.088 2.90903 108.163 3.05678 108.172C4.22958 108.274 5.40238 108.339 6.56594 108.376C6.7691 108.376 6.98149 108.283 7.12925 108.135C7.277 107.986 7.32318 107.801 7.2493 107.661C6.97226 107.132 6.70446 106.594 6.43665 106.047C6.38124 105.935 6.26119 105.87 6.11344 105.861V105.87Z" fill="#B11CAB"/>
<path d="M4.70963 102.631C3.60148 102.278 2.36404 101.814 1.20971 101.582C1.01579 101.545 0.784922 101.601 0.618699 101.74C0.452476 101.879 0.387833 102.065 0.443241 102.223C0.664872 102.835 0.94191 103.903 1.19125 104.515C1.23742 104.636 1.35747 104.719 1.51446 104.747C2.67802 104.933 3.84158 105.081 5.00514 105.193C5.19907 105.211 5.4207 105.128 5.57769 104.988C5.73468 104.84 5.79009 104.664 5.72544 104.524C5.48534 103.968 5.24524 103.411 5.02361 102.854C4.97744 102.742 4.86662 102.668 4.70963 102.64V102.631Z" fill="#B11CAB"/>
<path d="M30.0863 130.317C29.1259 130.976 28.147 131.607 27.1405 132.21C26.965 132.312 26.8357 132.516 26.808 132.721C26.7803 132.934 26.845 133.12 26.9927 133.194C27.5653 133.5 28.1378 133.788 28.7196 134.076C28.8396 134.131 28.9782 134.113 29.1074 134.029C30.0955 133.38 31.0559 132.702 31.9886 132.006C32.1549 131.885 32.2657 131.681 32.2842 131.468C32.3026 131.254 32.2287 131.087 32.0902 131.022C31.5361 130.772 31.0005 130.521 30.4557 130.261C30.3449 130.205 30.2156 130.224 30.0863 130.317Z" fill="#B11CAB"/>
<path d="M27.0019 128.655C26.0045 129.249 24.9887 129.806 23.9452 130.354C23.7697 130.447 23.622 130.642 23.5758 130.846C23.5296 131.05 23.5943 131.245 23.7328 131.328C24.2776 131.672 24.8317 131.997 25.395 132.321C25.5059 132.386 25.6536 132.377 25.7829 132.303C26.8079 131.718 27.8053 131.115 28.7841 130.484C28.9504 130.372 29.0796 130.178 29.1074 129.964C29.1443 129.751 29.0796 129.574 28.9411 129.509C28.4148 129.231 27.8884 128.934 27.3712 128.637C27.2697 128.581 27.1311 128.59 27.0019 128.665V128.655Z" fill="#B11CAB"/>
<path d="M24.056 126.79C23.0218 127.31 21.969 127.811 20.8978 128.275C20.7131 128.358 20.5561 128.535 20.5007 128.739C20.4361 128.943 20.4915 129.138 20.6208 129.231C21.1471 129.602 21.6735 129.973 22.2091 130.326C22.3107 130.4 22.4585 130.4 22.597 130.326C23.659 129.816 24.6932 129.277 25.709 128.711C25.8845 128.609 26.023 128.423 26.0692 128.219C26.1154 128.015 26.0692 127.829 25.9399 127.755C25.432 127.44 24.9333 127.115 24.4347 126.781C24.3331 126.716 24.2038 126.716 24.0653 126.781L24.056 126.79Z" fill="#B11CAB"/>
<path d="M21.2396 124.748C20.1776 125.203 19.0879 125.63 17.989 126.029C17.795 126.094 17.6288 126.261 17.5549 126.465C17.4811 126.66 17.5088 126.855 17.6381 126.957C18.1367 127.365 18.6354 127.764 19.1433 128.154C19.2449 128.228 19.3926 128.247 19.5312 128.182C20.6208 127.737 21.6921 127.273 22.7356 126.771C22.911 126.688 23.068 126.502 23.1234 126.298C23.1881 126.094 23.1419 125.908 23.0218 125.825C22.5416 125.481 22.0614 125.119 21.5905 124.757C21.4981 124.683 21.3596 124.674 21.2211 124.739L21.2396 124.748Z" fill="#B11CAB"/>
<path d="M18.5706 122.521C17.4809 122.901 16.3728 123.254 15.2461 123.579C15.0522 123.634 14.8767 123.792 14.7844 123.987C14.7013 124.182 14.7198 124.377 14.8398 124.488C15.3108 124.934 15.7817 125.361 16.2619 125.788C16.3543 125.871 16.502 125.89 16.6498 125.843C17.7672 125.472 18.8661 125.073 19.9466 124.646C20.1312 124.572 20.2975 124.405 20.3713 124.201C20.4452 124.006 20.4175 123.82 20.2975 123.718C19.8357 123.337 19.3832 122.957 18.94 122.558C18.8476 122.474 18.7183 122.465 18.5706 122.511V122.521Z" fill="#B11CAB"/>
<path d="M16.0592 120.117C14.9418 120.423 13.8152 120.702 12.6701 120.952C12.4762 120.999 12.2822 121.138 12.1899 121.323C12.0883 121.509 12.0975 121.704 12.2084 121.825C12.6424 122.298 13.0949 122.762 13.5474 123.217C13.6397 123.31 13.7782 123.337 13.926 123.3C15.0619 123.003 16.1885 122.678 17.2874 122.326C17.4813 122.261 17.6476 122.103 17.7399 121.908C17.823 121.713 17.8138 121.528 17.703 121.425C17.2689 121.017 16.8441 120.599 16.4286 120.182C16.3455 120.098 16.2162 120.07 16.0684 120.117H16.0592Z" fill="#B11CAB"/>
<path d="M13.7132 117.555C12.5773 117.787 11.4322 117.991 10.2779 118.158C10.084 118.186 9.88082 118.326 9.77 118.502C9.65919 118.678 9.64995 118.882 9.76077 119.003C10.1671 119.504 10.5826 119.996 11.0074 120.479C11.0906 120.572 11.2291 120.618 11.3861 120.59C12.5404 120.377 13.6855 120.126 14.8121 119.848C15.006 119.801 15.1907 119.653 15.2923 119.467C15.3939 119.282 15.3939 119.096 15.2923 118.985C14.886 118.548 14.4889 118.103 14.101 117.657C14.0272 117.564 13.8886 117.537 13.7409 117.565L13.7132 117.555Z" fill="#B11CAB"/>
<path d="M11.5338 114.845C10.3887 115.003 9.22517 115.124 8.06161 115.216C7.85845 115.235 7.65529 115.356 7.53524 115.523C7.41519 115.699 7.39672 115.894 7.48907 116.024C7.85845 116.553 8.24631 117.073 8.63416 117.583C8.70804 117.685 8.84656 117.732 9.00354 117.713C10.1763 117.574 11.3307 117.407 12.4758 117.203C12.6697 117.165 12.8636 117.026 12.9744 116.85C13.0852 116.673 13.0945 116.479 13.0021 116.367C12.6235 115.903 12.2541 115.439 11.894 114.966C11.8201 114.873 11.6908 114.827 11.5431 114.845H11.5338Z" fill="#B11CAB"/>
<path d="M9.53014 111.987C8.37581 112.061 7.21225 112.107 6.03945 112.116C5.83629 112.116 5.62389 112.219 5.49461 112.386C5.35609 112.553 5.32838 112.748 5.4115 112.887C5.75318 113.434 6.09486 113.982 6.45501 114.52C6.52889 114.622 6.65817 114.687 6.81516 114.678C7.98796 114.613 9.16075 114.52 10.3058 114.4C10.4998 114.381 10.7029 114.251 10.8322 114.084C10.9523 113.908 10.98 113.722 10.8876 113.601C10.5459 113.119 10.2043 112.618 9.87182 112.126C9.80717 112.024 9.67789 111.977 9.53014 111.987Z" fill="#B11CAB"/>
<path d="M45.8497 135.941C45.979 135.783 46.0252 135.551 45.9883 135.347C45.9513 135.143 45.822 134.994 45.6651 134.967C45.0463 134.874 44.4368 134.781 43.8274 134.67C43.7073 134.651 43.578 134.707 43.4764 134.818C42.71 135.709 41.925 136.581 41.1031 137.435C40.9646 137.584 40.9185 137.807 40.9185 138.02C40.9185 138.475 41.4725 139.152 41.4725 139.152C42.0543 139.95 43.5688 141.287 43.7627 141.482C43.9566 141.677 44.1506 141.63 44.2799 141.63L45.859 135.941H45.8497Z" fill="#B11CAB"/>
<path d="M39.9857 134.029C39.1731 134.864 38.3235 135.681 37.4554 136.479C37.3077 136.619 37.2153 136.841 37.2338 137.055C37.243 137.268 37.3538 137.435 37.5201 137.482C38.148 137.667 38.7852 137.834 39.4316 138.002C39.5609 138.029 39.6994 137.992 39.8102 137.881C40.6598 137.046 41.4725 136.192 42.2574 135.319C42.3959 135.171 42.4606 134.939 42.4329 134.735C42.4052 134.521 42.2944 134.373 42.1374 134.335C41.5371 134.206 40.9369 134.066 40.3459 133.918C40.2258 133.89 40.0965 133.936 39.9857 134.048V134.029Z" fill="#B11CAB"/>
<path d="M36.5782 133.018C35.7101 133.797 34.8144 134.549 33.9001 135.291C33.7431 135.421 33.6416 135.635 33.6323 135.848C33.6323 136.062 33.7247 136.238 33.8817 136.294C34.4911 136.517 35.1099 136.739 35.7378 136.943C35.8579 136.981 36.0056 136.943 36.1164 136.841C37.0122 136.062 37.8803 135.273 38.7206 134.456C38.8684 134.317 38.9422 134.094 38.933 133.881C38.9238 133.667 38.8222 133.509 38.6744 133.463C38.0926 133.296 37.5109 133.11 36.9291 132.925C36.8183 132.888 36.6797 132.925 36.5689 133.027L36.5782 133.018Z" fill="#B11CAB"/>
<path d="M33.2816 131.774C32.3674 132.488 31.4254 133.185 30.465 133.862C30.2988 133.973 30.188 134.187 30.1695 134.4C30.1511 134.614 30.2342 134.79 30.3912 134.855C30.9822 135.124 31.5824 135.375 32.1827 135.616C32.3027 135.663 32.4413 135.635 32.5705 135.542C33.5125 134.827 34.4267 134.094 35.3132 133.333C35.461 133.203 35.5626 132.99 35.5718 132.776C35.5718 132.563 35.4887 132.396 35.3409 132.349C34.7684 132.145 34.2143 131.922 33.651 131.69C33.5402 131.644 33.4017 131.672 33.2816 131.765V131.774Z" fill="#B11CAB"/>
<path d="M85.3185 109.156C85.023 109.675 84.7183 110.195 84.4043 110.706C84.3212 110.835 84.3581 111.021 84.4966 111.179C84.6352 111.337 84.8383 111.448 85.0415 111.457C86.2051 111.504 87.3686 111.513 88.5506 111.494C88.7076 111.494 88.8369 111.42 88.9016 111.309C89.2248 110.743 89.5295 110.177 89.8343 109.601C89.9081 109.453 89.8712 109.267 89.7234 109.109C89.5757 108.951 89.3633 108.868 89.1601 108.877C87.9873 108.951 86.8238 108.979 85.6602 108.979C85.5032 108.979 85.3832 109.044 85.3278 109.146L85.3185 109.156Z" fill="#B11CAB"/>
<path d="M86.944 106.056C86.6854 106.594 86.4084 107.132 86.1313 107.67C86.0575 107.81 86.1036 107.986 86.2514 108.144C86.3991 108.292 86.6115 108.394 86.8147 108.385C87.9783 108.348 89.1418 108.283 90.3239 108.181C90.4808 108.172 90.6009 108.088 90.6563 107.977C90.9426 107.392 91.2104 106.798 91.4782 106.204C91.5428 106.056 91.4874 105.861 91.3304 105.721C91.1734 105.573 90.9518 105.499 90.7486 105.527C89.5851 105.675 88.4215 105.796 87.2672 105.879C87.1194 105.888 86.9994 105.963 86.944 106.065V106.056Z" fill="#B11CAB"/>
<path d="M88.3567 102.844C88.1351 103.411 87.895 103.967 87.6549 104.515C87.5903 104.654 87.6549 104.831 87.8027 104.979C87.9596 105.118 88.1813 105.202 88.3752 105.183C89.5295 105.072 90.6931 104.923 91.8659 104.738C92.0229 104.71 92.1337 104.626 92.1891 104.506C92.4292 103.902 92.7155 102.835 92.9371 102.213C92.9925 102.055 92.9279 101.87 92.7616 101.731C92.5954 101.601 92.3646 101.536 92.1706 101.573C91.0163 101.805 89.7789 102.269 88.6707 102.622C88.523 102.64 88.4029 102.724 88.3567 102.835V102.844Z" fill="#B11CAB"/>
<path d="M62.9246 130.261C62.389 130.521 61.8441 130.781 61.2901 131.022C61.1515 131.087 61.0684 131.254 61.0961 131.467C61.1146 131.681 61.2254 131.885 61.3916 132.006C62.3243 132.702 63.2847 133.37 64.2728 134.029C64.4021 134.113 64.5499 134.131 64.6607 134.075C65.2425 133.788 65.8242 133.5 66.3876 133.194C66.5353 133.12 66.6092 132.934 66.5723 132.72C66.5353 132.507 66.406 132.312 66.2398 132.21C65.2332 131.607 64.2544 130.966 63.294 130.317C63.1647 130.233 63.0354 130.215 62.9246 130.261Z" fill="#B11CAB"/>
<path d="M65.9998 128.627C65.4826 128.924 64.9563 129.212 64.4299 129.5C64.2914 129.574 64.2267 129.75 64.2637 129.955C64.2914 130.168 64.4207 130.363 64.5869 130.474C65.5658 131.105 66.5631 131.709 67.5881 132.293C67.7174 132.368 67.8652 132.377 67.976 132.312C68.5393 131.987 69.0934 131.662 69.6382 131.319C69.7767 131.235 69.8414 131.04 69.7952 130.836C69.749 130.632 69.6013 130.437 69.4258 130.344C68.3823 129.806 67.3665 129.24 66.3692 128.646C66.2399 128.572 66.1014 128.553 65.9998 128.618V128.627Z" fill="#B11CAB"/>
<path d="M68.9547 126.79C68.4561 127.124 67.9574 127.449 67.4495 127.764C67.3202 127.848 67.2648 128.024 67.3202 128.228C67.3664 128.433 67.5049 128.627 67.6804 128.72C68.6962 129.286 69.7305 129.825 70.7924 130.335C70.931 130.4 71.0787 130.4 71.1803 130.335C71.7159 129.973 72.2423 129.611 72.7686 129.24C72.8979 129.147 72.9533 128.952 72.8887 128.748C72.8333 128.544 72.6763 128.368 72.4916 128.284C71.4204 127.811 70.3676 127.319 69.3334 126.799C69.1949 126.734 69.0656 126.725 68.964 126.799L68.9547 126.79Z" fill="#B11CAB"/>
<path d="M71.7619 124.766C71.291 125.128 70.8108 125.481 70.3306 125.834C70.2105 125.927 70.1643 126.103 70.229 126.307C70.2936 126.511 70.4414 126.697 70.6168 126.781C71.6696 127.282 72.7316 127.746 73.8212 128.191C73.969 128.247 74.1075 128.238 74.2091 128.163C74.717 127.774 75.2249 127.375 75.7143 126.966C75.8436 126.864 75.8713 126.669 75.7975 126.474C75.7236 126.27 75.5574 126.103 75.3634 126.038C74.2645 125.639 73.1748 125.212 72.1128 124.757C71.9743 124.702 71.8358 124.702 71.7435 124.776L71.7619 124.766Z" fill="#B11CAB"/>
<path d="M74.4311 122.558C73.9878 122.947 73.5353 123.337 73.0736 123.718C72.9536 123.811 72.9259 123.996 72.9997 124.2C73.0736 124.395 73.2398 124.572 73.4245 124.646C74.505 125.073 75.6039 125.472 76.7213 125.843C76.869 125.89 77.0076 125.871 77.1091 125.787C77.5893 125.36 78.0695 124.934 78.5313 124.488C78.6513 124.377 78.6698 124.182 78.5867 123.987C78.4943 123.792 78.3189 123.634 78.1249 123.579C76.9983 123.254 75.8902 122.901 74.8005 122.52C74.6527 122.474 74.5234 122.483 74.4311 122.567V122.558Z" fill="#B11CAB"/>
<path d="M76.9519 120.182C76.5364 120.609 76.1024 121.017 75.6683 121.425C75.5575 121.527 75.539 121.713 75.6314 121.908C75.7237 122.103 75.89 122.261 76.0839 122.326C77.192 122.678 78.3094 123.003 79.4453 123.3C79.593 123.337 79.7408 123.3 79.8239 123.217C80.2764 122.762 80.7197 122.298 81.1629 121.824C81.2737 121.704 81.283 121.509 81.1814 121.323C81.0798 121.138 80.8951 120.989 80.7012 120.952C79.5561 120.701 78.4295 120.423 77.3121 120.117C77.1643 120.079 77.0351 120.098 76.9519 120.182Z" fill="#B11CAB"/>
<path d="M79.307 117.648C78.9191 118.093 78.5221 118.539 78.1157 118.975C78.0142 119.086 78.0142 119.272 78.1157 119.458C78.2173 119.643 78.402 119.792 78.5959 119.838C79.7226 120.117 80.8584 120.367 82.022 120.581C82.1697 120.608 82.3083 120.571 82.4006 120.469C82.8254 119.987 83.241 119.495 83.6473 118.994C83.7489 118.864 83.7489 118.669 83.638 118.492C83.5272 118.316 83.3333 118.177 83.1301 118.149C81.9666 117.982 80.8215 117.778 79.6949 117.546C79.5471 117.518 79.4178 117.546 79.3347 117.639L79.307 117.648Z" fill="#B11CAB"/>
<path d="M81.4953 114.956C81.1352 115.43 80.7658 115.903 80.3872 116.358C80.2948 116.478 80.3041 116.664 80.4149 116.84C80.5257 117.017 80.7196 117.156 80.9136 117.193C82.0586 117.397 83.213 117.564 84.3858 117.704C84.5428 117.722 84.672 117.676 84.7552 117.574C85.143 117.063 85.5309 116.543 85.9002 116.014C85.9926 115.875 85.9741 115.69 85.8541 115.513C85.734 115.337 85.5216 115.225 85.3277 115.207C84.1549 115.114 83.0006 114.993 81.8555 114.836C81.7077 114.817 81.5784 114.854 81.5046 114.956H81.4953Z" fill="#B11CAB"/>
<path d="M83.4994 112.126C83.167 112.627 82.8345 113.119 82.4836 113.601C82.4005 113.722 82.419 113.908 82.539 114.084C82.6591 114.251 82.8622 114.381 83.0654 114.399C84.2197 114.529 85.3833 114.622 86.5561 114.678C86.7131 114.678 86.8424 114.622 86.9162 114.52C87.2764 113.982 87.6181 113.434 87.9597 112.887C88.0429 112.747 88.0152 112.552 87.8766 112.385C87.7381 112.218 87.5257 112.116 87.3318 112.116C86.159 112.107 84.9954 112.061 83.8411 111.986C83.6934 111.986 83.5641 112.033 83.4994 112.126Z" fill="#B11CAB"/>
<path d="M53.0342 133.909C52.4432 134.057 51.843 134.196 51.2427 134.326C51.0857 134.363 50.9749 134.512 50.9472 134.725C50.9195 134.939 50.9934 135.161 51.1227 135.31C51.9076 136.182 52.7295 137.036 53.5698 137.872C53.6806 137.983 53.8192 138.029 53.9484 137.992C54.5856 137.834 55.2228 137.658 55.86 137.472C56.017 137.426 56.1371 137.259 56.1463 137.046C56.1555 136.832 56.0724 136.609 55.9247 136.47C55.0474 135.672 54.207 134.855 53.3944 134.02C53.2836 133.909 53.1543 133.862 53.0342 133.89V133.909Z" fill="#B11CAB"/>
<path d="M56.4328 132.915C55.8603 133.101 55.2785 133.287 54.6875 133.454C54.5397 133.5 54.4382 133.658 54.4289 133.871C54.4197 134.085 54.5028 134.308 54.6413 134.447C55.4817 135.264 56.3497 136.062 57.2455 136.832C57.3655 136.934 57.5041 136.971 57.6241 136.934C58.2428 136.73 58.8615 136.517 59.4803 136.284C59.6373 136.229 59.7388 136.052 59.7296 135.839C59.7296 135.626 59.6188 135.412 59.4618 135.282C58.5383 134.549 57.6426 133.788 56.7838 133.008C56.6729 132.906 56.5344 132.869 56.4236 132.906L56.4328 132.915Z" fill="#B11CAB"/>
<path d="M59.7294 131.7C59.1753 131.922 58.612 132.145 58.0395 132.358C57.8917 132.414 57.8086 132.581 57.8086 132.785C57.8086 132.999 57.9102 133.212 58.0579 133.342C58.9445 134.103 59.8587 134.837 60.8006 135.551C60.9299 135.644 61.0684 135.672 61.1885 135.625C61.7887 135.384 62.389 135.124 62.98 134.864C63.1277 134.799 63.2201 134.614 63.2016 134.41C63.1831 134.196 63.0631 133.992 62.9061 133.871C61.9365 133.194 61.0038 132.498 60.0895 131.783C59.9695 131.69 59.831 131.662 59.7202 131.709L59.7294 131.7Z" fill="#B11CAB"/>
<path d="M4.38644 71.0192L1.03428 69.4878C0.84035 69.395 0.581781 69.3858 0.36015 69.4414C0.138519 69.4971 0 69.6271 0 69.7663V71.3812C0 71.4926 0.0831116 71.5947 0.230865 71.6596L3.58303 73.191C3.77696 73.2746 4.03553 73.2931 4.25716 73.2374C4.47879 73.1817 4.61731 73.0518 4.61731 72.9126V71.2977C4.61731 71.1956 4.5342 71.0935 4.38644 71.0192Z" fill="#B11CAB"/>
<path d="M4.38644 67.8823L1.03428 66.3509C0.84035 66.2674 0.581781 66.2489 0.36015 66.3045C0.138519 66.3602 0 66.4902 0 66.6294V68.2443C0 68.3464 0.0831116 68.4578 0.230865 68.5227L3.58303 70.0541C3.77696 70.1377 4.03553 70.1562 4.25716 70.1005C4.47879 70.0448 4.61731 69.9149 4.61731 69.7757V68.1608C4.61731 68.0587 4.5342 67.9566 4.38644 67.8823Z" fill="#B11CAB"/>
<path d="M4.38644 64.7451L1.03428 63.2137C0.84035 63.1302 0.581781 63.1116 0.36015 63.1673C0.138519 63.223 0 63.353 0 63.4922V65.1071C0 65.2092 0.0831116 65.3113 0.230865 65.3855L3.58303 66.9169C3.77696 67.0004 4.03553 67.019 4.25716 66.9633C4.47879 66.9076 4.61731 66.7777 4.61731 66.6385V65.0236C4.61731 64.9122 4.5342 64.8194 4.38644 64.7451Z" fill="#B11CAB"/>
<path d="M4.38644 61.6082L1.03428 60.0768C0.84035 59.9932 0.581781 59.9747 0.36015 60.0304C0.138519 60.0861 0 60.216 0 60.3552V61.9701C0 62.0815 0.0831116 62.1836 0.230865 62.2486L3.58303 63.78C3.77696 63.8635 4.03553 63.882 4.25716 63.8264C4.47879 63.7707 4.61731 63.6407 4.61731 63.5015V61.8866C4.61731 61.7752 4.5342 61.6731 4.38644 61.6082Z" fill="#B11CAB"/>
<path d="M4.38644 58.4712L1.03428 56.9398C0.84035 56.8563 0.581781 56.8377 0.36015 56.8934C0.138519 56.9491 0 57.079 0 57.2182V58.8332C0 58.9445 0.0831116 59.0373 0.230865 59.1116L3.58303 60.643C3.77696 60.7265 4.03553 60.7451 4.25716 60.6894C4.47879 60.6337 4.61731 60.5038 4.61731 60.3646V58.7496C4.61731 58.6383 4.5342 58.5455 4.38644 58.4712Z" fill="#B11CAB"/>
<path d="M4.38644 55.3342L1.03428 53.8028C0.84035 53.7193 0.581781 53.7008 0.36015 53.7564C0.138519 53.8121 0 53.9421 0 54.0813V55.6962C0 55.8076 0.0831116 55.9097 0.230865 55.9746L3.58303 57.506C3.77696 57.5896 4.03553 57.6081 4.25716 57.5524C4.47879 57.4967 4.61731 57.3668 4.61731 57.2276V55.6127C4.61731 55.5106 4.5342 55.4085 4.38644 55.3342Z" fill="#B11CAB"/>
<path d="M4.38644 52.197L1.03428 50.6656C0.84035 50.5821 0.581781 50.5635 0.36015 50.6192C0.138519 50.6749 0 50.8049 0 50.9441V52.559C0 52.6611 0.0831116 52.7632 0.230865 52.8374L3.58303 54.3688C3.77696 54.4524 4.03553 54.4709 4.25716 54.4152C4.47879 54.3595 4.61731 54.2296 4.61731 54.0904V52.4755C4.61731 52.3734 4.5342 52.2713 4.38644 52.197Z" fill="#B11CAB"/>
<path d="M4.38644 49.0601L1.03428 47.5287C0.84035 47.4451 0.581781 47.4266 0.36015 47.4823C0.138519 47.538 0 47.6679 0 47.8071V49.422C0 49.5241 0.0831116 49.6262 0.230865 49.7005L3.58303 51.2319C3.77696 51.3154 4.03553 51.334 4.25716 51.2783C4.47879 51.2226 4.61731 51.0926 4.61731 50.9534V49.3385C4.61731 49.2364 4.5342 49.1343 4.38644 49.0601Z" fill="#B11CAB"/>
<path d="M4.38644 45.923L1.03428 44.3917C0.84035 44.2988 0.581781 44.2896 0.36015 44.3452C0.138519 44.4009 0 44.5309 0 44.6701V46.285C0 46.3964 0.0831116 46.4892 0.230865 46.5634L3.58303 48.0948C3.77696 48.1784 4.03553 48.1969 4.25716 48.1412C4.47879 48.0856 4.61731 47.9556 4.61731 47.8164V46.2015C4.61731 46.0901 4.5342 45.988 4.38644 45.923Z" fill="#B11CAB"/>
<path d="M4.38644 99.2527L1.03428 97.7213C0.84035 97.6378 0.581781 97.6192 0.36015 97.6749C0.138519 97.7306 0 97.8605 0 97.9997V100.004C0 100.116 0.0831116 100.218 0.230865 100.283L3.58303 101.434C3.77696 101.517 4.03553 101.536 4.25716 101.48C4.47879 101.424 4.61731 101.295 4.61731 101.155V99.5404C4.61731 99.4383 4.5342 99.3362 4.38644 99.262V99.2527Z" fill="#B11CAB"/>
<path d="M4.38644 96.1157L1.03428 94.5843C0.84035 94.5008 0.581781 94.4822 0.36015 94.5379C0.138519 94.5936 0 94.7236 0 94.8628V96.4777C0 96.5798 0.0831116 96.6819 0.230865 96.7561L3.58303 98.2875C3.77696 98.3711 4.03553 98.3896 4.25716 98.3339C4.47879 98.2782 4.61731 98.1483 4.61731 98.0091V96.3942C4.61731 96.2828 4.5342 96.19 4.38644 96.1157Z" fill="#B11CAB"/>
<path d="M4.38644 92.9788L1.03428 91.4474C0.84035 91.3638 0.581781 91.3453 0.36015 91.401C0.138519 91.4567 0 91.5866 0 91.7258V93.3407C0 93.4428 0.0831116 93.5449 0.230865 93.6192L3.58303 95.1506C3.77696 95.2341 4.03553 95.2526 4.25716 95.197C4.47879 95.1413 4.61731 95.0113 4.61731 94.8721V93.2572C4.61731 93.1551 4.5342 93.053 4.38644 92.9788Z" fill="#B11CAB"/>
<path d="M4.38644 89.8416L1.03428 88.3102C0.84035 88.2266 0.581781 88.2081 0.36015 88.2638C0.138519 88.3195 0 88.4494 0 88.5886V90.2035C0 90.3149 0.0831116 90.4077 0.230865 90.482L3.58303 92.0134C3.77696 92.0969 4.03553 92.1154 4.25716 92.0598C4.47879 92.0041 4.61731 91.8741 4.61731 91.7349V90.12C4.61731 90.0086 4.5342 89.9065 4.38644 89.8416Z" fill="#B11CAB"/>
<path d="M4.38644 86.7046L1.03428 85.1732C0.84035 85.0897 0.581781 85.0711 0.36015 85.1268C0.138519 85.1918 0 85.3124 0 85.4516V87.0666C0 87.1779 0.0831116 87.28 0.230865 87.345L3.58303 88.8764C3.77696 88.9599 4.03553 88.9785 4.25716 88.9228C4.47879 88.8578 4.61731 88.7372 4.61731 88.598V86.983C4.61731 86.8717 4.5342 86.7788 4.38644 86.7046Z" fill="#B11CAB"/>
<path d="M4.38644 83.5676L1.03428 82.0362C0.84035 81.9527 0.581781 81.9342 0.36015 81.9898C0.138519 82.0455 0 82.1755 0 82.3147V83.9296C0 84.041 0.0831116 84.1431 0.230865 84.208L3.58303 85.7394C3.77696 85.823 4.03553 85.8415 4.25716 85.7858C4.47879 85.7301 4.61731 85.6002 4.61731 85.461V83.8461C4.61731 83.744 4.5342 83.6419 4.38644 83.5676Z" fill="#B11CAB"/>
<path d="M4.38644 80.4307L1.03428 78.8993C0.84035 78.8158 0.581781 78.7972 0.36015 78.8529C0.138519 78.9086 0 79.0385 0 79.1777V80.7926C0 80.904 0.0831116 81.0061 0.230865 81.0711L3.58303 82.6025C3.77696 82.686 4.03553 82.7046 4.25716 82.6489C4.47879 82.5932 4.61731 82.4632 4.61731 82.324V80.7091C4.61731 80.607 4.5342 80.5049 4.38644 80.4307Z" fill="#B11CAB"/>
<path d="M4.38644 77.2935L1.03428 75.7621C0.84035 75.6785 0.581781 75.66 0.36015 75.7157C0.138519 75.7714 0 75.9013 0 76.0405V77.6554C0 77.7575 0.0831116 77.8596 0.230865 77.9339L3.58303 79.4653C3.77696 79.5488 4.03553 79.5673 4.25716 79.5117C4.47879 79.456 4.61731 79.326 4.61731 79.1868V77.5719C4.61731 77.4698 4.5342 77.3677 4.38644 77.2935Z" fill="#B11CAB"/>
<path d="M4.38644 74.1565L1.03428 72.6251C0.84035 72.5416 0.581781 72.523 0.36015 72.5787C0.138519 72.6344 0 72.7643 0 72.9036V74.5185C0 74.6206 0.0831116 74.7227 0.230865 74.7969L3.58303 76.3283C3.77696 76.4118 4.03553 76.4304 4.25716 76.3747C4.47879 76.319 4.61731 76.1891 4.61731 76.0499V74.4349C4.61731 74.3236 4.5342 74.2215 4.38644 74.1565Z" fill="#B11CAB"/>
<path d="M4.38644 42.7861L1.03428 41.2548C0.84035 41.1712 0.581781 41.1527 0.36015 41.2083C0.138519 41.264 0 41.394 0 41.5332V43.1481C0 43.2595 0.0831116 43.3616 0.230865 43.4265L3.58303 44.9579C3.77696 45.0415 4.03553 45.06 4.25716 45.0043C4.47879 44.9487 4.61731 44.8187 4.61731 44.6795V43.0646C4.61731 42.9625 4.5342 42.8604 4.38644 42.7861Z" fill="#B11CAB"/>
<path d="M4.38644 39.6492L1.03428 38.1178C0.84035 38.0343 0.581781 38.0157 0.36015 38.0714C0.138519 38.1271 0 38.257 0 38.3962V40.0111C0 40.1132 0.0831116 40.2246 0.230865 40.2896L3.58303 41.821C3.77696 41.9045 4.03553 41.9231 4.25716 41.8674C4.47879 41.8117 4.61731 41.6817 4.61731 41.5425V39.9276C4.61731 39.8162 4.5342 39.7234 4.38644 39.6492Z" fill="#B11CAB"/>
<path d="M4.38644 36.512L1.03428 34.9806C0.84035 34.8971 0.581781 34.8785 0.36015 34.9342C0.138519 34.9899 0 35.1198 0 35.259V36.8739C0 36.9853 0.0831116 37.0781 0.230865 37.1524L3.58303 38.6838C3.77696 38.7673 4.03553 38.7859 4.25716 38.7302C4.47879 38.6745 4.61731 38.5445 4.61731 38.4053V36.7904C4.61731 36.679 4.5342 36.5862 4.38644 36.512Z" fill="#B11CAB"/>
<path d="M4.38644 33.375L1.03428 31.8436C0.84035 31.7601 0.581781 31.7415 0.36015 31.7972C0.138519 31.8529 0 31.9828 0 32.1221V33.737C0 33.8483 0.0831116 33.9504 0.230865 34.0154L3.58303 35.5468C3.77696 35.6303 4.03553 35.6489 4.25716 35.5932C4.47879 35.5375 4.61731 35.4076 4.61731 35.2684V33.6534C4.61731 33.5421 4.5342 33.44 4.38644 33.375Z" fill="#B11CAB"/>
<path d="M21.7754 20.3536L23.2991 16.9846C23.3822 16.7897 23.4007 16.5298 23.3453 16.307C23.2898 16.0843 23.1606 15.9451 23.022 15.9451H21.4152C21.3044 15.9451 21.2028 16.0286 21.1382 16.1771L19.6145 19.5462C19.5314 19.7411 19.5129 20.0009 19.5683 20.2237C19.6237 20.4464 19.753 20.5856 19.8915 20.5856H21.4983C21.6091 20.5856 21.7015 20.5021 21.7754 20.3536Z" fill="#B11CAB"/>
<path d="M24.8965 20.3536L26.4202 16.9846C26.5033 16.7897 26.5218 16.5298 26.4663 16.307C26.4109 16.0843 26.2817 15.9451 26.1431 15.9451H24.5363C24.4347 15.9451 24.3331 16.0286 24.2593 16.1771L22.7356 19.5462C22.6524 19.7411 22.634 20.0009 22.6894 20.2237C22.7448 20.4464 22.8741 20.5856 23.0126 20.5856H24.6194C24.7302 20.5856 24.8226 20.5021 24.8965 20.3536Z" fill="#B11CAB"/>
<path d="M28.018 20.3536L29.5418 16.9846C29.6249 16.7897 29.6433 16.5298 29.5879 16.307C29.5325 16.0843 29.4032 15.9451 29.2647 15.9451H27.6579C27.5563 15.9451 27.4547 16.0286 27.3809 16.1771L25.8571 19.5462C25.774 19.7411 25.7556 20.0009 25.811 20.2237C25.8664 20.4464 25.9957 20.5856 26.1342 20.5856H27.741C27.8426 20.5856 27.9442 20.5021 28.018 20.3536Z" fill="#B11CAB"/>
<path d="M31.1391 20.3536L32.6628 16.9846C32.746 16.7897 32.7644 16.5298 32.709 16.307C32.6536 16.0843 32.5243 15.9451 32.3858 15.9451H30.779C30.6682 15.9451 30.5666 16.0286 30.5019 16.1771L28.9782 19.5462C28.8951 19.7411 28.8767 20.0009 28.9321 20.2237C28.9875 20.4464 29.1168 20.5856 29.2553 20.5856H30.8621C30.9729 20.5856 31.0745 20.5021 31.1391 20.3536Z" fill="#B11CAB"/>
<path d="M34.2607 20.3536L35.7844 16.9846C35.8675 16.7897 35.886 16.5298 35.8306 16.307C35.7752 16.0843 35.6459 15.9451 35.5074 15.9451H33.9006C33.7898 15.9451 33.6974 16.0286 33.6235 16.1771L32.0998 19.5462C32.0167 19.7411 31.9982 20.0009 32.0536 20.2237C32.1091 20.4464 32.2383 20.5856 32.3769 20.5856H33.9837C34.0945 20.5856 34.1868 20.5021 34.2607 20.3536Z" fill="#B11CAB"/>
<path d="M37.3818 20.3536L38.9055 16.9846C38.9886 16.7897 39.0071 16.5298 38.9517 16.307C38.8963 16.0843 38.767 15.9451 38.6285 15.9451H37.0217C36.9201 15.9451 36.8185 16.0286 36.7446 16.1771L35.2209 19.5462C35.1378 19.7411 35.1193 20.0009 35.1747 20.2237C35.2301 20.4464 35.3594 20.5856 35.4979 20.5856H37.1048C37.2064 20.5856 37.3079 20.5021 37.3818 20.3536Z" fill="#B11CAB"/>
<path d="M40.5034 20.3536L42.0271 16.9846C42.1102 16.7897 42.1287 16.5298 42.0733 16.307C42.0179 16.0843 41.8886 15.9451 41.7501 15.9451H40.1432C40.0324 15.9451 39.9401 16.0286 39.8662 16.1771L38.3425 19.5462C38.2594 19.7411 38.2409 20.0009 38.2963 20.2237C38.3517 20.4464 38.481 20.5856 38.6195 20.5856H40.2264C40.3279 20.5856 40.4295 20.5021 40.5034 20.3536Z" fill="#B11CAB"/>
<path d="M43.2643 15.9543C43.1628 15.9543 43.0612 16.0379 42.9873 16.1864L41.4636 19.5554C41.3805 19.7503 41.362 20.0102 41.4174 20.233C41.4728 20.4557 41.6021 20.5949 41.7406 20.5949H44.7973V15.9543H43.2643Z" fill="#B11CAB"/>
<path d="M18.6538 20.3536L20.1775 16.9846C20.2606 16.7897 20.2791 16.5298 20.2237 16.307C20.1683 16.0843 20.039 15.9451 19.9005 15.9451H18.2936C18.1921 15.9451 18.0905 16.0286 18.0166 16.1771L16.4929 19.5462C16.4098 19.7411 16.3913 20.0009 16.4467 20.2237C16.5021 20.4464 16.6314 20.5856 16.7699 20.5856H18.3767C18.4783 20.5856 18.5799 20.5021 18.6538 20.3536Z" fill="#B11CAB"/>
<path d="M4.7743 30.7113C4.7743 30.5999 4.70965 30.4978 4.58037 30.4143C3.56456 29.7924 2.82579 29.0871 1.76381 28.2054C1.59759 28.0661 1.37596 27.9826 1.14509 28.0105C0.92346 28.0383 0.766471 28.1775 0.711063 28.3539C0.480198 29.0592 0.415555 29.5511 0.360148 30.2751C0.350913 30.4143 0.42479 30.5628 0.563309 30.6556C1.59759 31.3888 2.58569 31.9828 3.70308 32.4561C3.89701 32.5397 4.14634 32.5397 4.3495 32.4561C4.55267 32.3819 4.68195 32.2427 4.67272 32.1127L4.7743 30.702V30.7113Z" fill="#B11CAB"/>
<path d="M5.78992 28.1591C5.82686 28.057 5.78069 27.9363 5.66987 27.8249C4.82952 26.9804 4.26621 26.1265 3.4351 25.022C3.30581 24.855 3.10265 24.7065 2.88102 24.6879C2.65939 24.6601 2.4747 24.7622 2.38235 24.9199C1.9945 25.5511 1.81904 26.0151 1.60664 26.7019C1.56047 26.8411 1.60664 26.9989 1.71746 27.1196C2.55781 28.0755 3.37969 28.883 4.34932 29.6069C4.51555 29.7276 4.76488 29.7926 4.97728 29.7647C5.19891 29.7369 5.34666 29.6348 5.36513 29.5048L5.78992 28.1591Z" fill="#B11CAB"/>
<path d="M7.23984 25.7368C7.29525 25.644 7.28602 25.514 7.21214 25.3841C6.63036 24.3446 6.31638 23.3608 5.81771 22.08C5.74383 21.8851 5.58685 21.6902 5.37445 21.6067C5.16205 21.5231 4.95889 21.5695 4.82961 21.6995C4.28476 22.2007 3.98926 22.5997 3.6014 23.203C3.52753 23.3237 3.51829 23.4815 3.6014 23.6392C4.15548 24.7808 4.72803 25.7832 5.4668 26.7484C5.59608 26.9155 5.81771 27.0361 6.03011 27.064C6.25174 27.1011 6.41796 27.0361 6.4826 26.9155L7.24908 25.7368H7.23984Z" fill="#B11CAB"/>
<path d="M9.34562 23.5742C9.42873 23.5 9.4472 23.37 9.40103 23.2215C9.07782 22.0707 9.00394 21.0498 8.81925 19.6854C8.79154 19.472 8.68073 19.2492 8.49603 19.1193C8.31134 18.9893 8.10818 18.9893 7.94196 19.0822C7.29553 19.4441 6.91691 19.7597 6.39054 20.2609C6.28896 20.363 6.24279 20.5115 6.27972 20.6785C6.54753 21.9222 6.87074 23.0359 7.36941 24.1404C7.45252 24.3353 7.64645 24.5023 7.84038 24.5859C8.04354 24.6694 8.22823 24.6508 8.31134 24.5488L9.33638 23.5835L9.34562 23.5742Z" fill="#B11CAB"/>
<path d="M11.9126 21.9221C12.0049 21.8757 12.0603 21.755 12.0603 21.5972C12.0603 20.4 12.2542 19.3976 12.4389 18.0333C12.4666 17.8198 12.4205 17.5785 12.2819 17.4022C12.1434 17.2258 11.9403 17.1701 11.7556 17.2165C11.0353 17.3929 10.592 17.5971 9.95482 17.9312C9.82554 17.9962 9.75166 18.1354 9.74243 18.3024C9.67778 19.5739 9.68702 20.7248 9.87171 21.9314C9.89941 22.1355 10.0379 22.349 10.2134 22.4882C10.3888 22.6274 10.5643 22.6553 10.6751 22.581L11.9218 21.9221H11.9126Z" fill="#B11CAB"/>
<path d="M15.0522 20.7897C15.1538 20.7619 15.2369 20.6598 15.2738 20.5113C15.5601 19.3512 16.0126 18.4323 16.5205 17.1515C16.6036 16.9566 16.6221 16.706 16.5205 16.5018C16.4282 16.2977 16.2435 16.1956 16.0588 16.1863C15.32 16.1863 14.8398 16.2605 14.138 16.4276C13.9995 16.4647 13.8886 16.5761 13.8332 16.7339C13.4546 17.9497 13.1776 19.0727 13.0668 20.2793C13.0483 20.4927 13.1222 20.7248 13.2607 20.9011C13.3992 21.0774 13.5562 21.1517 13.6855 21.1053L15.0522 20.7804V20.7897Z" fill="#B11CAB"/>
<path d="M88.7632 71.2979V72.9128C88.7632 73.052 88.9017 73.1727 89.1233 73.2377C89.345 73.2934 89.6035 73.2841 89.7975 73.1913L93.1496 71.6599C93.2974 71.5949 93.3805 71.4928 93.3805 71.3814V69.7665C93.3805 69.6273 93.242 69.5067 93.0203 69.4417C92.7987 69.386 92.5401 69.3953 92.3462 69.4881L88.994 71.0195C88.8463 71.0844 88.7632 71.1865 88.7632 71.2979Z" fill="#B11CAB"/>
<path d="M88.7632 68.161V69.7759C88.7632 69.9151 88.9017 70.0358 89.1233 70.1008C89.345 70.1565 89.6035 70.1379 89.7975 70.0544L93.1496 68.523C93.2974 68.458 93.3805 68.3559 93.3805 68.2445V66.6296C93.3805 66.4904 93.242 66.3698 93.0203 66.3048C92.7987 66.2491 92.5401 66.2677 92.3462 66.3512L88.994 67.8826C88.8463 67.9475 88.7632 68.0496 88.7632 68.161Z" fill="#B11CAB"/>
<path d="M88.7632 65.024V66.6389C88.7632 66.7781 88.9017 66.8988 89.1233 66.9638C89.345 67.0194 89.6035 67.0009 89.7975 66.9173L93.1496 65.386C93.2974 65.321 93.3805 65.2189 93.3805 65.1075V63.4926C93.3805 63.3534 93.242 63.2327 93.0203 63.1678C92.7987 63.1121 92.5401 63.1214 92.3462 63.2142L88.994 64.7456C88.8463 64.8105 88.7632 64.9126 88.7632 65.024Z" fill="#B11CAB"/>
<path d="M88.7632 61.8868V63.5017C88.7632 63.6409 88.9017 63.7616 89.1233 63.8265C89.345 63.8822 89.6035 63.8637 89.7975 63.7801L93.1496 62.2487C93.2974 62.1838 93.3805 62.0817 93.3805 61.9703V60.3554C93.3805 60.2162 93.242 60.0955 93.0203 60.0306C92.7987 59.9749 92.5401 59.9841 92.3462 60.077L88.994 61.6083C88.8463 61.6733 88.7632 61.7754 88.7632 61.8868Z" fill="#B11CAB"/>
<path d="M88.7632 58.7499V60.3648C88.7632 60.504 88.9017 60.6247 89.1233 60.6896C89.345 60.7453 89.6035 60.7268 89.7975 60.6432L93.1496 59.1118C93.2974 59.0469 93.3805 58.9448 93.3805 58.8334V57.2185C93.3805 57.0793 93.242 56.9586 93.0203 56.8936C92.7987 56.838 92.5401 56.8565 92.3462 56.9401L88.994 58.4714C88.8463 58.5364 88.7632 58.6385 88.7632 58.7499Z" fill="#B11CAB"/>
<path d="M88.7632 55.6129V57.2278C88.7632 57.3671 88.9017 57.4877 89.1233 57.5527C89.345 57.6084 89.6035 57.5991 89.7975 57.5063L93.1496 55.9749C93.2974 55.9099 93.3805 55.8078 93.3805 55.6964V54.0815C93.3805 53.9423 93.242 53.8217 93.0203 53.7567C92.7987 53.701 92.5401 53.7196 92.3462 53.8031L88.994 55.3345C88.8463 55.3994 88.7632 55.5015 88.7632 55.6129Z" fill="#B11CAB"/>
<path d="M88.7632 52.4757V54.0906C88.7632 54.2298 88.9017 54.3505 89.1233 54.4155C89.345 54.4712 89.6035 54.4526 89.7975 54.3691L93.1496 52.8377C93.2974 52.7727 93.3805 52.6706 93.3805 52.5592V50.9443C93.3805 50.8051 93.242 50.6844 93.0203 50.6195C92.7987 50.5638 92.5401 50.5824 92.3462 50.6659L88.994 52.1973C88.8463 52.2622 88.7632 52.3643 88.7632 52.4757Z" fill="#B11CAB"/>
<path d="M88.7632 49.3387V50.9537C88.7632 51.0929 88.9017 51.2135 89.1233 51.2785C89.345 51.3342 89.6035 51.3249 89.7975 51.2321L93.1496 49.7007C93.2974 49.6357 93.3805 49.5337 93.3805 49.4223V47.8074C93.3805 47.6681 93.242 47.5475 93.0203 47.4825C92.7987 47.4268 92.5401 47.4454 92.3462 47.5289L88.994 49.0603C88.8463 49.1253 88.7632 49.2274 88.7632 49.3387Z" fill="#B11CAB"/>
<path d="M88.7632 46.2017V47.8166C88.7632 47.9559 88.9017 48.0765 89.1233 48.1415C89.345 48.1972 89.6035 48.1786 89.7975 48.0951L93.1496 46.5637C93.2974 46.4987 93.3805 46.3966 93.3805 46.2853V44.6703C93.3805 44.5311 93.242 44.4105 93.0203 44.3455C92.7987 44.2898 92.5401 44.2991 92.3462 44.3919L88.994 45.9233C88.8463 45.9883 88.7632 46.0903 88.7632 46.2017Z" fill="#B11CAB"/>
<path d="M88.7632 99.5314V101.146C88.7632 101.286 88.9017 101.406 89.1233 101.471C89.345 101.527 89.6035 101.508 89.7975 101.425L93.1496 100.274C93.2974 100.209 93.3805 100.107 93.3805 99.9954V97.9907C93.3805 97.8515 93.242 97.7308 93.0203 97.6659C92.7987 97.6102 92.5401 97.6287 92.3462 97.7123L88.994 99.2437C88.8463 99.3086 88.7632 99.4107 88.7632 99.5221V99.5314Z" fill="#B11CAB"/>
<path d="M88.7632 96.3944V98.0093C88.7632 98.1485 88.9017 98.2692 89.1233 98.3342C89.345 98.3899 89.6035 98.3713 89.7975 98.2878L93.1496 96.7564C93.2974 96.6914 93.3805 96.5893 93.3805 96.4779V94.863C93.3805 94.7238 93.242 94.6031 93.0203 94.5382C92.7987 94.4825 92.5401 94.5011 92.3462 94.5846L88.994 96.116C88.8463 96.1809 88.7632 96.283 88.7632 96.3944Z" fill="#B11CAB"/>
<path d="M88.7632 93.2572V94.8721C88.7632 95.0113 88.9017 95.132 89.1233 95.197C89.345 95.2526 89.6035 95.2341 89.7975 95.1506L93.1496 93.6192C93.2974 93.5542 93.3805 93.4521 93.3805 93.3407V91.7258C93.3805 91.5866 93.242 91.4659 93.0203 91.401C92.7987 91.3453 92.5401 91.3638 92.3462 91.4474L88.994 92.9788C88.8463 93.0437 88.7632 93.1458 88.7632 93.2572Z" fill="#B11CAB"/>
<path d="M88.7632 90.1202V91.7351C88.7632 91.8743 88.9017 91.995 89.1233 92.0599C89.345 92.1156 89.6035 92.0971 89.7975 92.0135L93.1496 90.4821C93.2974 90.4172 93.3805 90.3151 93.3805 90.2037V88.5888C93.3805 88.4496 93.242 88.3289 93.0203 88.2639C92.7987 88.2083 92.5401 88.2175 92.3462 88.3104L88.994 89.8417C88.8463 89.9067 88.7632 90.0088 88.7632 90.1202Z" fill="#B11CAB"/>
<path d="M88.7632 86.9833V88.5982C88.7632 88.7374 88.9017 88.8581 89.1233 88.923C89.345 88.9787 89.6035 88.9602 89.7975 88.8766L93.1496 87.3452C93.2974 87.2803 93.3805 87.1782 93.3805 87.0668V85.4519C93.3805 85.3127 93.242 85.192 93.0203 85.127C92.7987 85.0714 92.5401 85.0899 92.3462 85.1734L88.994 86.7048C88.8463 86.7698 88.7632 86.8719 88.7632 86.9833Z" fill="#B11CAB"/>
<path d="M88.7632 83.8463V85.4612C88.7632 85.6005 88.9017 85.7211 89.1233 85.7861C89.345 85.8418 89.6035 85.8232 89.7975 85.7397L93.1496 84.2083C93.2974 84.1433 93.3805 84.0412 93.3805 83.9298V82.3149C93.3805 82.1757 93.242 82.0551 93.0203 81.9901C92.7987 81.9344 92.5401 81.953 92.3462 82.0365L88.994 83.5679C88.8463 83.6329 88.7632 83.7349 88.7632 83.8463Z" fill="#B11CAB"/>
<path d="M88.7632 80.7091V82.324C88.7632 82.4632 88.9017 82.5839 89.1233 82.6489C89.345 82.7046 89.6035 82.686 89.7975 82.6025L93.1496 81.0711C93.2974 81.0061 93.3805 80.904 93.3805 80.7926V79.1777C93.3805 79.0385 93.242 78.9178 93.0203 78.8529C92.7987 78.7972 92.5401 78.8158 92.3462 78.8993L88.994 80.4307C88.8463 80.4956 88.7632 80.5977 88.7632 80.7091Z" fill="#B11CAB"/>
<path d="M88.7632 77.5721V79.1871C88.7632 79.3263 88.9017 79.4469 89.1233 79.5119C89.345 79.5676 89.6035 79.549 89.7975 79.4655L93.1496 77.9341C93.2974 77.8691 93.3805 77.767 93.3805 77.6557V76.0408C93.3805 75.9015 93.242 75.7809 93.0203 75.7159C92.7987 75.6602 92.5401 75.6788 92.3462 75.7623L88.994 77.2937C88.8463 77.3587 88.7632 77.4608 88.7632 77.5721Z" fill="#B11CAB"/>
<path d="M88.7632 74.4351V76.05C88.7632 76.1893 88.9017 76.3099 89.1233 76.3749C89.345 76.4306 89.6035 76.412 89.7975 76.3285L93.1496 74.7971C93.2974 74.7321 93.3805 74.63 93.3805 74.5187V72.9037C93.3805 72.7645 93.242 72.6439 93.0203 72.5789C92.7987 72.5232 92.5401 72.5325 92.3462 72.6253L88.994 74.1567C88.8463 74.2217 88.7632 74.3237 88.7632 74.4351Z" fill="#B11CAB"/>
<path d="M88.7632 43.0648V44.6797C88.7632 44.819 88.9017 44.9396 89.1233 45.0046C89.345 45.0603 89.6035 45.051 89.7975 44.9582L93.1496 43.4268C93.2974 43.3618 93.3805 43.2597 93.3805 43.1484V41.5334C93.3805 41.3942 93.242 41.2736 93.0203 41.2086C92.7987 41.1529 92.5401 41.1715 92.3462 41.255L88.994 42.7864C88.8463 42.8514 88.7632 42.9534 88.7632 43.0648Z" fill="#B11CAB"/>
<path d="M88.7632 39.9276V41.5425C88.7632 41.6817 88.9017 41.8024 89.1233 41.8674C89.345 41.9231 89.6035 41.9045 89.7975 41.821L93.1496 40.2896C93.2974 40.2246 93.3805 40.1225 93.3805 40.0111V38.3962C93.3805 38.257 93.242 38.1364 93.0203 38.0714C92.7987 38.0157 92.5401 38.0343 92.3462 38.1178L88.994 39.6492C88.8463 39.7141 88.7632 39.8162 88.7632 39.9276Z" fill="#B11CAB"/>
<path d="M88.7632 36.7907V38.4056C88.7632 38.5448 88.9017 38.6654 89.1233 38.7304C89.345 38.7861 89.6035 38.7675 89.7975 38.684L93.1496 37.1526C93.2974 37.0876 93.3805 36.9856 93.3805 36.8742V35.2593C93.3805 35.12 93.242 34.9994 93.0203 34.9344C92.7987 34.8787 92.5401 34.8973 92.3462 34.9808L88.994 36.5122C88.8463 36.5772 88.7632 36.6793 88.7632 36.7907Z" fill="#B11CAB"/>
<path d="M88.7632 33.6536V35.2685C88.7632 35.4078 88.9017 35.5284 89.1233 35.5934C89.345 35.6491 89.6035 35.6305 89.7975 35.547L93.1496 34.0156C93.2974 33.9506 93.3805 33.8485 93.3805 33.7372V32.1222C93.3805 31.983 93.242 31.8624 93.0203 31.7974C92.7987 31.7417 92.5401 31.751 92.3462 31.8438L88.994 33.3752C88.8463 33.4402 88.7632 33.5423 88.7632 33.6536Z" fill="#B11CAB"/>
<path d="M71.8727 20.5856H73.4796C73.6181 20.5856 73.7381 20.4464 73.8028 20.2237C73.8582 20.0009 73.8397 19.7411 73.7566 19.5462L72.2329 16.1771C72.1682 16.0286 72.0667 15.9451 71.9558 15.9451H70.349C70.2105 15.9451 70.0905 16.0843 70.0258 16.307C69.9704 16.5298 69.9889 16.7897 70.072 16.9846L71.5957 20.3536C71.6603 20.5021 71.7619 20.5856 71.8727 20.5856Z" fill="#B11CAB"/>
<path d="M68.7516 20.5856H70.3585C70.497 20.5856 70.617 20.4464 70.6817 20.2237C70.7371 20.0009 70.7186 19.7411 70.6355 19.5462L69.1118 16.1771C69.0471 16.0286 68.9456 15.9451 68.8348 15.9451H67.2279C67.0894 15.9451 66.9694 16.0843 66.9047 16.307C66.8493 16.5298 66.8678 16.7897 66.9509 16.9846L68.4746 20.3536C68.5392 20.5021 68.6408 20.5856 68.7516 20.5856Z" fill="#B11CAB"/>
<path d="M65.6305 20.5856H67.2374C67.3759 20.5856 67.4959 20.4464 67.5606 20.2237C67.616 20.0009 67.5975 19.7411 67.5144 19.5462L65.9907 16.1771C65.9261 16.0286 65.8245 15.9451 65.7137 15.9451H64.1068C63.9683 15.9451 63.8483 16.0843 63.7836 16.307C63.7282 16.5298 63.7467 16.7897 63.8298 16.9846L65.3535 20.3536C65.4181 20.5021 65.5197 20.5856 65.6305 20.5856Z" fill="#B11CAB"/>
<path d="M62.5091 20.5856H64.116C64.2545 20.5856 64.3745 20.4464 64.4392 20.2237C64.4946 20.0009 64.4761 19.7411 64.393 19.5462L62.8693 16.1771C62.8046 16.0286 62.7031 15.9451 62.5922 15.9451H60.9854C60.8469 15.9451 60.7269 16.0843 60.6622 16.307C60.6068 16.5298 60.616 16.7897 60.7084 16.9846L62.2321 20.3536C62.2967 20.5021 62.3983 20.5856 62.5091 20.5856Z" fill="#B11CAB"/>
<path d="M59.3879 20.5856H60.9947C61.1332 20.5856 61.2533 20.4464 61.3179 20.2237C61.3733 20.0009 61.3548 19.7411 61.2717 19.5462L59.748 16.1771C59.6834 16.0286 59.5818 15.9451 59.471 15.9451H57.8642C57.7256 15.9451 57.6056 16.0843 57.5409 16.307C57.4855 16.5298 57.504 16.7897 57.5871 16.9846L59.1108 20.3536C59.1755 20.5021 59.2771 20.5856 59.3879 20.5856Z" fill="#B11CAB"/>
<path d="M56.2663 20.5856H57.8731C58.0116 20.5856 58.1317 20.4464 58.1963 20.2237C58.2517 20.0009 58.2425 19.7411 58.1502 19.5462L56.6264 16.1771C56.5618 16.0286 56.4602 15.9451 56.3494 15.9451H54.7426C54.6041 15.9451 54.484 16.0843 54.4194 16.307C54.364 16.5298 54.3824 16.7897 54.4655 16.9846L55.9893 20.3536C56.0539 20.5021 56.1555 20.5856 56.2663 20.5856Z" fill="#B11CAB"/>
<path d="M53.1454 20.5856H54.7522C54.8907 20.5856 55.0108 20.4464 55.0754 20.2237C55.1308 20.0009 55.1123 19.7411 55.0292 19.5462L53.5055 16.1771C53.4409 16.0286 53.3393 15.9451 53.2285 15.9451H51.6217C51.4831 15.9451 51.3631 16.0843 51.2984 16.307C51.243 16.5298 51.2523 16.7897 51.3446 16.9846L52.8683 20.3536C52.933 20.5021 53.0346 20.5856 53.1454 20.5856Z" fill="#B11CAB"/>
<path d="M48.4263 15.9539V20.5944H51.6307C51.7692 20.5944 51.8893 20.4552 51.9539 20.2325C52.0093 20.0097 51.9908 19.7498 51.9077 19.5549L50.384 16.1859C50.3194 16.0374 50.2178 15.9539 50.107 15.9539H48.4263Z" fill="#B11CAB"/>
<path d="M74.9945 20.5856H76.6013C76.7398 20.5856 76.8599 20.4464 76.9245 20.2237C76.9799 20.0009 76.9615 19.7411 76.8784 19.5462L75.3546 16.1771C75.29 16.0286 75.1884 15.9451 75.0776 15.9451H73.4708C73.3323 15.9451 73.2122 16.0843 73.1476 16.307C73.0922 16.5298 73.1014 16.7897 73.1937 16.9846L74.7175 20.3536C74.7821 20.5021 74.8837 20.5856 74.9945 20.5856Z" fill="#B11CAB"/>
<path d="M88.7078 32.1221C88.7078 32.2613 88.8186 32.3913 89.031 32.4655C89.2342 32.5398 89.4928 32.5398 89.6775 32.4655C90.7949 31.9922 91.7737 31.3889 92.8172 30.665C92.9558 30.5722 93.0296 30.4237 93.0204 30.2845C92.9742 29.5605 92.9003 29.0686 92.6695 28.3633C92.6141 28.1869 92.4571 28.0477 92.2354 28.0198C92.0138 27.992 91.783 28.0848 91.6167 28.2148C90.5547 29.0872 89.816 29.7925 88.8002 30.4237C88.6709 30.5072 88.597 30.6186 88.6062 30.7207L88.7078 32.1314V32.1221Z" fill="#B11CAB"/>
<path d="M88.0057 29.5048C88.0242 29.6441 88.1811 29.7369 88.3935 29.7647C88.6152 29.7926 88.8553 29.7369 89.0215 29.6069C89.9911 28.883 90.813 28.0755 91.6534 27.1196C91.7642 26.9896 91.8011 26.8411 91.7642 26.7019C91.5518 26.0151 91.3671 25.5511 90.9885 24.9199C90.8869 24.7622 90.7114 24.6601 90.4898 24.6879C90.2682 24.7065 90.065 24.855 89.9357 25.022C89.1046 26.1172 88.5505 26.9804 87.7009 27.8249C87.5901 27.9363 87.5439 28.057 87.5809 28.1591L88.0057 29.5048Z" fill="#B11CAB"/>
<path d="M86.9071 26.9155C86.9625 27.0361 87.138 27.0918 87.3596 27.064C87.572 27.0269 87.7936 26.9062 87.9229 26.7484C88.6709 25.7925 89.2342 24.7901 89.7883 23.6392C89.8622 23.4907 89.8622 23.3237 89.7883 23.203C89.3912 22.5997 89.0957 22.2007 88.5601 21.6995C88.4216 21.5695 88.2277 21.5231 88.0153 21.6067C87.8029 21.6902 87.6459 21.8758 87.572 22.08C87.0641 23.3608 86.7594 24.3446 86.1776 25.3841C86.1037 25.5233 86.0852 25.6532 86.1499 25.7368L86.9163 26.9155H86.9071Z" fill="#B11CAB"/>
<path d="M85.0602 24.5395C85.1433 24.6416 85.328 24.6601 85.5312 24.5766C85.7344 24.4931 85.919 24.326 86.0022 24.1311C86.5008 23.0174 86.8148 21.9129 87.0918 20.6692C87.1288 20.5022 87.0918 20.3537 86.981 20.2516C86.4547 19.7504 86.076 19.4441 85.4296 19.0729C85.2634 18.9801 85.0602 18.9801 84.8755 19.11C84.6908 19.2399 84.58 19.4627 84.5523 19.6762C84.3584 21.0405 84.2937 22.0707 83.9705 23.2123C83.9244 23.3608 83.9428 23.4907 84.0259 23.565L85.051 24.5302L85.0602 24.5395Z" fill="#B11CAB"/>
<path d="M82.7054 22.5812C82.8162 22.6554 82.9917 22.6276 83.1671 22.4884C83.3426 22.3584 83.4719 22.145 83.5088 21.9315C83.6935 20.725 83.7028 19.5741 83.6381 18.3026C83.6381 18.1355 83.5458 17.9963 83.4257 17.9313C82.7885 17.5972 82.336 17.393 81.625 17.2167C81.4495 17.1703 81.2463 17.2167 81.0986 17.4023C80.9508 17.5787 80.9139 17.82 80.9416 18.0334C81.1263 19.3978 81.3295 20.4094 81.3202 21.5974C81.3202 21.7552 81.3756 21.8758 81.468 21.9222L82.7146 22.5812H82.7054Z" fill="#B11CAB"/>
<path d="M79.6945 21.1148C79.8238 21.1612 79.9808 21.0869 80.1193 20.9106C80.2578 20.7343 80.3317 20.4929 80.3132 20.2888C80.1932 19.0729 79.9254 17.9592 79.5467 16.7434C79.5006 16.5856 79.3805 16.4649 79.242 16.4371C78.5402 16.27 78.0507 16.1865 77.3212 16.1958C77.1365 16.1958 76.9518 16.2979 76.8595 16.5113C76.7579 16.7155 76.7764 16.9661 76.8595 17.161C77.3674 18.4418 77.8199 19.3606 78.1061 20.5208C78.1431 20.6693 78.2262 20.7807 78.3278 20.7992L79.6945 21.1241V21.1148Z" fill="#B11CAB"/>
<path d="M60.4409 53.8213H58.9634V57.7936H60.4409V53.8213Z" fill="#B11CAB"/>
<path d="M40.1985 78.0637V74.3234H55.7681V52.5777H62.4909V74.3234H66.785V81.7762C74.4682 84.5605 81.4773 88.7556 87.526 94.0366V64.2905C81.8744 58.6104 57.9752 34.6001 54.2906 31.0175C50.1073 26.9431 50.4028 28.2518 46.2472 32.4283L51.6402 37.8949L51.1138 38.4703C51.1138 38.4703 50.0057 37.3566 45.8224 33.2729C41.6391 29.1984 42.5072 29.9409 38.3516 34.1082C34.4177 38.0619 17.0196 55.5384 5.85498 66.7593V90.7232C15.5883 83.5025 27.3901 78.9361 40.1985 78.073V78.0637Z" fill="#B11CAB"/>
<path d="M42.6178 142.503C42.7656 142.419 42.9041 142.308 42.9318 142.094C42.9595 141.881 42.8856 141.658 42.7471 141.51C41.9252 140.656 41.131 139.783 40.3738 138.892C40.2722 138.781 40.1429 138.725 40.0229 138.744C39.4134 138.855 34.4913 141.528 29.5878 143.134C29.44 143.18 29.3477 143.347 29.3477 143.561C29.3477 143.774 29.44 143.988 29.597 144.127C30.4927 144.897 38.3514 143.607 40.8263 143.069C42.0176 142.809 42.1099 142.763 42.627 142.494L42.6178 142.503Z" fill="#B11CAB"/>
<path d="M52.5541 143.078C55.0382 143.607 62.8969 144.897 63.7834 144.136C63.9404 144.006 64.0328 143.784 64.0328 143.57C64.0328 143.357 63.9404 143.19 63.7927 143.143C58.8891 141.538 53.967 138.855 53.3575 138.753C53.2375 138.735 53.1082 138.79 53.0066 138.902C52.2402 139.793 51.4552 140.665 50.6333 141.519C50.4948 141.668 50.4209 141.89 50.4486 142.104C50.4763 142.317 50.6149 142.429 50.7626 142.512C51.2798 142.781 51.3721 142.828 52.5634 143.088L52.5541 143.078Z" fill="#B11CAB"/>
<path d="M49.1006 141.621C49.2206 141.621 49.4238 141.668 49.6085 141.473C49.8024 141.278 51.3076 139.941 51.8986 139.143C51.8986 139.143 52.4527 138.456 52.4527 138.011C52.4527 137.797 52.4065 137.575 52.268 137.426C51.4461 136.572 50.652 135.7 49.8947 134.809C49.7932 134.697 49.6639 134.642 49.5438 134.66C48.9343 134.772 48.3248 134.874 47.7061 134.957C47.5491 134.976 47.4291 135.124 47.3829 135.338C47.346 135.542 47.3922 135.774 47.5214 135.932L49.1006 141.621Z" fill="#B11CAB"/>
<path d="M118.24 0H144.439C148.927 0 153.018 0.491901 156.739 1.46642C160.452 2.44094 163.638 3.97233 166.279 6.03275C168.92 8.10245 170.979 10.7847 172.457 14.1074C173.934 17.4207 174.673 21.4209 174.673 26.0893C174.673 31.4167 173.574 36.2243 171.385 40.5215C169.188 44.8187 165.992 47.7794 161.781 49.4036V50.0533C167.156 51.2505 171.496 53.9699 174.811 58.2021C178.127 62.4436 179.78 68.2536 179.78 75.6507C179.78 80.8667 178.976 85.433 177.36 89.3497C175.744 93.2663 173.463 96.524 170.508 99.132C167.553 101.74 164.016 103.698 159.888 104.998C155.77 106.306 151.245 106.956 146.313 106.956H118.231V0H118.24ZM142.426 45.4869C149.952 45.4869 155.373 43.9091 158.688 40.7628C162.003 37.6072 163.656 33.3193 163.656 27.8806C163.656 21.6808 161.929 17.2815 158.485 14.6735C155.031 12.0655 149.86 10.7569 142.961 10.7569H129.386V45.4869H142.416H142.426ZM144.716 96.1899C152.325 96.1899 158.245 94.4822 162.456 91.0574C166.667 87.6327 168.772 82.3331 168.772 75.1588C168.772 68.532 166.713 63.6687 162.594 60.5688C158.475 57.4689 152.519 55.919 144.725 55.919H129.405V96.1899H144.725H144.716Z" fill="#B11CAB"/>
<path d="M196.328 0H247.119L241.578 11.4158H207.484V45.0043H240.941L235.4 56.5779H207.484V95.3824H248.467L242.926 106.956H196.328V0Z" fill="#B11CAB"/>
<path d="M293.439 106.947C287.261 106.947 281.526 105.582 276.244 102.854C270.962 100.125 266.391 96.4033 262.54 91.6885L269.254 82.5651C272.384 86.4447 276.087 89.5631 280.335 91.9205C284.592 94.278 288.997 95.4567 293.568 95.4567C299.386 95.4567 303.911 93.9067 307.143 90.8161C310.366 87.7255 311.982 83.6603 311.982 78.6299C311.982 76.0126 311.604 73.7852 310.837 71.9475C310.071 70.1098 309.046 68.5413 307.744 67.2327C306.441 65.924 304.899 64.7453 303.108 63.6966C301.316 62.6478 299.386 61.5526 297.327 60.3925L284.694 53.9421C282.635 52.8933 280.529 51.6403 278.377 50.1646C276.226 48.6982 274.296 46.9162 272.597 44.8187C270.897 42.7211 269.503 40.2338 268.432 37.3474C267.361 34.4609 266.816 31.1383 266.816 27.3608C266.816 23.5834 267.508 19.8617 268.903 16.5112C270.288 13.1607 272.218 10.2464 274.684 7.77761C277.149 5.3181 280.058 3.3969 283.42 2.03257C286.79 0.686805 290.484 0 294.51 0C299.793 0 304.678 1.17871 309.156 3.53612C313.635 5.89353 317.44 8.96559 320.58 12.7337L314.531 21.226C311.844 18.1818 308.861 15.7965 305.592 14.0702C302.323 12.3439 298.629 11.4715 294.51 11.4715C289.579 11.4715 285.617 12.808 282.616 15.481C279.615 18.1539 278.119 21.8478 278.119 26.5719C278.119 29.0871 278.544 31.2125 279.393 32.9388C280.243 34.6651 281.388 36.1872 282.819 37.4959C284.251 38.8045 285.821 39.9646 287.52 40.9577C289.219 41.9601 290.964 42.8696 292.756 43.7142L305.25 50.0069C307.753 51.2691 310.135 52.7077 312.37 54.3319C314.605 55.9561 316.535 57.8494 318.151 59.9934C319.767 62.1466 321.041 64.6618 321.983 67.539C322.925 70.4254 323.396 73.748 323.396 77.5255C323.396 81.6185 322.704 85.4423 321.318 89.0063C319.933 92.5702 317.939 95.6887 315.344 98.3617C312.749 101.035 309.609 103.132 305.934 104.654C302.258 106.176 298.093 106.937 293.439 106.937V106.947Z" fill="#B11CAB"/>
<path d="M417.516 0H428.671V106.947H417.516V0Z" fill="#B11CAB"/>
<path d="M450.086 0H472.12C485.732 0 496.084 4.56633 503.157 13.699C510.231 22.8316 513.768 35.9273 513.768 52.9954C513.768 61.4691 512.872 69.0518 511.081 75.7342C509.289 82.4166 506.648 88.0689 503.157 92.6909C499.667 97.3129 495.363 100.84 490.257 103.29C485.15 105.731 479.286 106.956 472.655 106.956H450.086V0ZM471.316 95.865C481.613 95.865 489.342 92.1155 494.495 84.6163C499.648 77.1171 502.225 66.5737 502.225 52.9861C502.225 39.3985 499.648 29.0222 494.495 21.8478C489.342 14.6735 481.613 11.091 471.316 11.091H461.241V95.865H471.316Z" fill="#B11CAB"/>
<path d="M530.871 0H581.661L576.12 11.4158H542.026V45.0043H575.483L569.942 56.5779H542.026V95.3824H583.009L577.469 106.956H530.871V0Z" fill="#B11CAB"/>
<path d="M118.508 117.434H123.522L129.839 138.549C130.236 139.913 130.633 141.296 131.021 142.679C131.409 144.062 131.796 145.445 132.203 146.809H132.406C132.803 145.445 133.182 144.062 133.533 142.679C133.883 141.287 134.262 139.913 134.659 138.549L140.874 117.434H145.935V157H142.028V135.226C142.028 133.454 142.093 131.505 142.232 129.379C142.361 127.245 142.481 125.295 142.582 123.532H142.379L139.775 132.516L133.56 153.028H130.799L124.584 132.516L121.98 123.532H121.777C121.878 125.305 121.989 127.254 122.1 129.379C122.22 131.514 122.276 133.463 122.276 135.226V157H118.517V117.434H118.508Z" fill="#B11CAB"/>
<path d="M154.957 117.434H173.906V121.657H159.113V134.085H171.598V138.363H159.113V152.721H174.405V157H154.948V117.434H154.957Z" fill="#B11CAB"/>
<path d="M181.377 117.434H185.69L197.574 142.289L201.13 150.494H201.333C201.231 148.48 201.121 146.401 201.01 144.248C200.89 142.094 200.834 139.978 200.834 137.881V117.434H204.796V157H200.483L188.552 132.089L184.988 123.95H184.785C184.914 125.964 185.043 128.006 185.163 130.075C185.283 132.145 185.339 134.224 185.339 136.321V157.009H181.377V117.444V117.434Z" fill="#B11CAB"/>
<path d="M213.818 117.434H222.037C227.116 117.434 230.976 119.124 233.617 122.502C236.258 125.88 237.579 130.725 237.579 137.036C237.579 140.173 237.247 142.976 236.572 145.454C235.908 147.923 234.919 150.02 233.617 151.728C232.315 153.436 230.708 154.745 228.806 155.645C226.904 156.554 224.715 157 222.24 157H213.818V117.434ZM221.742 152.898C225.583 152.898 228.464 151.515 230.395 148.74C232.315 145.965 233.276 142.067 233.276 137.036C233.276 132.006 232.315 128.173 230.395 125.518C228.474 122.864 225.592 121.537 221.742 121.537H217.983V152.898H221.742Z" fill="#B11CAB"/>
<path d="M244.662 117.434H248.827V157H244.662V117.434Z" fill="#B11CAB"/>
<path d="M255.586 153.984L272.883 121.657H257.138V117.434H278.1V120.386L260.749 152.712H278.248V156.991H255.586V153.974V153.984Z" fill="#B11CAB"/>
<path d="M299.608 144.934H287.621L284.463 157H280.197L291.324 117.434H296.034L307.162 157H302.702L299.589 144.934H299.608ZM298.555 140.897L297.004 134.864C296.404 132.655 295.831 130.456 295.295 128.256C294.76 126.066 294.224 123.82 293.689 121.527H293.485C292.987 123.82 292.47 126.066 291.934 128.256C291.398 130.447 290.835 132.646 290.226 134.864L288.674 140.897H298.555Z" fill="#B11CAB"/>
<path d="M311.844 117.434H316.009V152.721H330.396V157H311.844V117.434Z" fill="#B11CAB"/>
<path d="M336.214 117.434H355.163V121.657H340.369V134.085H352.855V138.363H340.369V152.721H355.662V157H336.205V117.434H336.214Z" fill="#B11CAB"/>
<path d="M372.663 117.434H391.612V121.657H376.819V134.085H389.304V138.363H376.819V152.721H392.111V157H372.654V117.434H372.663Z" fill="#B11CAB"/>
<path d="M399.092 117.434H403.257V152.721H417.645V157H399.092V117.434Z" fill="#B11CAB"/>
<path d="M423.454 117.434H427.618V137.277H427.766L441.452 117.434H446.162L435.883 132.516L447.768 157.009H443.105L433.279 136.442L427.609 144.461V157.009H423.444V117.444L423.454 117.434Z" fill="#B11CAB"/>
<path d="M467.032 144.934H455.045L451.887 157H447.621L458.748 117.434H463.458L474.586 157H470.125L467.013 144.934H467.032ZM465.979 140.897L464.428 134.864C463.827 132.655 463.255 130.456 462.719 128.256C462.184 126.066 461.648 123.82 461.112 121.527H460.909C460.411 123.82 459.893 126.066 459.358 128.256C458.822 130.447 458.259 132.646 457.649 134.864L456.098 140.897H465.979Z" fill="#B11CAB"/>
<path d="M497.312 157L489.389 140.294H483.423V157H479.258V117.434H489.536C491.208 117.434 492.75 117.629 494.172 118.01C495.594 118.39 496.813 119.021 497.829 119.912C498.845 120.794 499.639 121.945 500.212 123.346C500.784 124.757 501.061 126.483 501.061 128.535C501.061 131.634 500.396 134.103 499.057 135.95C497.718 137.797 495.936 139.069 493.692 139.746L502.012 157H497.303H497.312ZM483.423 136.192H488.936C491.513 136.192 493.48 135.56 494.856 134.289C496.222 133.027 496.915 131.105 496.915 128.525C496.915 125.945 496.232 124.08 494.856 123.04C493.489 121.991 491.513 121.472 488.936 121.472H483.423V136.192Z" fill="#B11CAB"/>
<path d="M513.907 121.657H503.979V117.434H528.045V121.657H518.118V157H513.907V121.657Z" fill="#B11CAB"/>
<path d="M533.964 117.434H552.914V121.657H538.12V134.085H550.605V138.363H538.12V152.721H553.412V157H533.955V117.434H533.964Z" fill="#B11CAB"/>
<path d="M575.437 144.934H563.45L560.292 157H556.025L567.153 117.434H571.863L582.99 157H578.53L575.418 144.934H575.437ZM574.384 140.897L572.832 134.864C572.232 132.655 571.66 130.456 571.124 128.256C570.588 126.066 570.053 123.82 569.517 121.527H569.314C568.815 123.82 568.298 126.066 567.763 128.256C567.227 130.447 566.664 132.646 566.054 134.864L564.503 140.897H574.384Z" fill="#B11CAB"/>
<path d="M402.251 106.947L372.423 0H371.213H361.009H359.79L329.962 106.947H341.386L366.107 18.3024L390.837 106.947H402.251Z" fill="#B11CAB"/>
</g>
<defs>
<clipPath id="clip0_539_20728">
<rect width="583" height="157" fill="white"/>
</clipPath>
</defs>
</svg>
